<?xml version="1.0" encoding="utf-8"?>
<!-- Generator: Adobe Illustrator 25.0.0, SVG Export Plug-In . SVG Version: 6.00 Build 0)  -->
<svg version="1.1" id="b53a807e-26bd-423b-9266-af2eb023e0f0"
	 xmlns="http://www.w3.org/2000/svg" xmlns:xlink="http://www.w3.org/1999/xlink" x="0px" y="0px" viewBox="0 0 924.2 818.9"
	 style="enable-background:new 0 0 924.2 818.9;" xml:space="preserve">
<style type="text/css">
	.st0{opacity:0.1;fill:#6DC0E4;enable-background:new    ;}
	.st1{fill:#6DC0E4;}
	.st2{fill:none;stroke:#565987;stroke-miterlimit:10;}
	.st3{opacity:0.1;enable-background:new    ;}
	.st4{fill:#FFD037;}
	.st5{fill:#A8A8A8;}
	.st6{opacity:0.2;enable-background:new    ;}
	.st7{fill:#65617D;}
	.st8{fill:#3F3D56;}
	.st9{fill:#BE6F72;}
	.st10{fill:#FBBEBE;}
	.st11{fill:#E3E8F4;}
	.st12{fill:#5ECCC9;}
	.st13{opacity:0.1;}
	.st14{fill:none;stroke:#3F3D56;stroke-miterlimit:10;}
</style>
<path class="st0" d="M414,316.8c-36.1-11.7-74.3-21.5-113.3-20.5c-57.4,1.5-112.6,28.2-139.8,67.8c-23,33.5-26.1,72.9-36.1,110.1
	c-12.4,45.9-35.9,89.4-60.9,132c-13.5,22.9-27.7,46.2-30,71.3c-3.2,34.9,17.9,69.8,51.3,93.2s77.7,35.8,122.2,38.8
	c23.7,1.5,48.5,0.3,69.6-8.2c22.3-9,38.7-25.5,61.1-34.4c20.8-8.2,45-9.3,68.3-8.1c30.2,1.5,60.1,6.6,89.1,15.3
	c32.5,9.7,62.7,23.7,95.1,33.6c32.4,9.9,68.7,15.4,101.9,7.5c31.2-7.4,55.9-25.8,78.2-44.4c36-29.9,69.4-62.6,100-98
	c20.1-23.4,38.9-48.1,47.9-75.4c17.2-52.3-5.8-111.4-57.4-147.4c-42.7-29.8-100.1-43-156.4-51c-51.3-7.4-110.6-8.1-157.8-26.9
	C502.1,354.1,461.2,332.1,414,316.8z"/>
<ellipse class="st0" cx="874.5" cy="491.8" rx="23.1" ry="3.2"/>
<ellipse class="st0" cx="785.9" cy="500.7" rx="23.1" ry="3.2"/>
<ellipse class="st0" cx="681.6" cy="488.6" rx="23.1" ry="3.2"/>
<ellipse class="st0" cx="821.3" cy="526.3" rx="16.4" ry="2.3"/>
<ellipse class="st0" cx="729.5" cy="524" rx="16.4" ry="2.3"/>
<path class="st1" d="M785.4,500c0,0,32.4-106.3-5.1-148.8c-28-31.8-59.9-28-74.1-24.1c-7.5,2-13.7,7.2-17,14.1
	c-5,10.8-4.1,28.2,31.1,48.6c58.9,34.1,62.6,80.9,62.6,80.9L785.4,500z"/>
<path class="st2" d="M711.3,342.2c0,0,95.6,29.9,74.1,157.8"/>
<path class="st2" d="M767.1,352.9c0,0-13.2,8.9-9,22.2"/>
<path class="st2" d="M720.9,360.8c0,0,8-8.2,17.8-3.7"/>
<path class="st2" d="M758.7,401.9c0,0,14.1-7.2,17.8,1.8"/>
<path class="st2" d="M793.6,416.9c0,0-10.6-0.8-10.8,4.2"/>
<path class="st1" d="M786.7,500.9c0,0-38-77.2-48.4-75.5c-5,0.8-7.2,5.7-8.3,10.6c-1.3,6.3-0.6,12.9,2.1,18.8
	C737.5,467,752,490.5,786.7,500.9z"/>
<path class="st2" d="M738.6,440c0,0,39.8,57.8,47.6,60.3"/>
<line class="st2" x1="735" y1="449" x2="744.3" y2="449"/>
<line class="st2" x1="746.1" y1="470.1" x2="760.7" y2="470.8"/>
<line class="st2" x1="755" y1="453.2" x2="753.4" y2="460.8"/>
<line class="st2" x1="770.5" y1="476.3" x2="770.2" y2="483.2"/>
<path class="st1" d="M785.6,500.9c0,0,38-77.2,48.4-75.5c5,0.8,7.2,5.7,8.3,10.6c1.3,6.3,0.6,12.9-2.1,18.8
	C834.8,467,820.3,490.5,785.6,500.9z"/>
<path class="st2" d="M833.7,440c0,0-39.8,57.8-47.5,60.3"/>
<line class="st2" x1="837.4" y1="449" x2="828.1" y2="449"/>
<line class="st2" x1="826.2" y1="470.1" x2="811.7" y2="470.8"/>
<line class="st2" x1="817.4" y1="453.2" x2="819" y2="460.8"/>
<line class="st2" x1="801.9" y1="476.3" x2="802.2" y2="483.2"/>
<path class="st1" d="M720.4,518.9c-1-0.8-1.8-2-2.2-3.3c-0.3-1.3,0.3-2.7,1.5-3.3c1.4-0.5,2.9,0.4,4,1.4s2.4,2.1,3.9,1.9
	c-1.5-1.4-2.2-3.5-1.8-5.5c0.1-0.4,0.2-0.8,0.5-1.1c0.8-0.8,2.2-0.5,3.1,0.2c2.9,2.1,3.8,6,3.8,9.6c0.1-1.3,0.1-2.7,0-4
	c-0.1-1.3,0.4-2.7,1.5-3.5c0.7-0.4,1.5-0.6,2.3-0.5c1.3-0.2,2.7,0.2,3.7,1c1.1,1.2,0.8,3.2-0.2,4.5c-1.1,1.2-2.4,2.2-3.8,3
	c-1.1,0.6-2,1.5-2.7,2.6c-0.1,0.1-0.1,0.3-0.2,0.5h-8.3C723.7,521.4,721.9,520.3,720.4,518.9z"/>
<path class="st1" d="M865.1,487.8c-1-0.8-1.8-2-2.2-3.3c-0.3-1.3,0.3-2.7,1.5-3.3c1.4-0.5,2.9,0.4,4,1.4s2.4,2.1,3.9,1.9
	c-1.5-1.4-2.2-3.5-1.8-5.5c0.1-0.4,0.2-0.8,0.5-1.1c0.8-0.8,2.2-0.5,3.1,0.2c2.9,2.1,3.8,6,3.8,9.6c0.1-1.3,0.1-2.7,0-4
	c-0.1-1.3,0.4-2.7,1.5-3.5c0.7-0.4,1.5-0.6,2.3-0.5c1.3-0.2,2.7,0.2,3.7,1c1.1,1.2,0.8,3.2-0.2,4.5c-1.1,1.2-2.4,2.3-3.8,3.1
	c-1.1,0.6-2,1.5-2.7,2.6c-0.1,0.1-0.1,0.3-0.2,0.5h-8.3C868.3,490.3,866.6,489.2,865.1,487.8z"/>
<path class="st1" d="M816.9,518.9c-1-0.8-1.8-2-2.2-3.3c-0.3-1.3,0.3-2.7,1.5-3.3c1.4-0.5,2.9,0.4,4,1.4s2.4,2.1,3.9,1.9
	c-1.5-1.4-2.2-3.5-1.8-5.5c0.1-0.4,0.2-0.8,0.5-1.1c0.8-0.8,2.2-0.5,3.1,0.2c2.9,2.1,3.8,6,3.8,9.6c0.2-1.3,0.2-2.7,0-4
	c-0.1-1.3,0.4-2.7,1.5-3.5c0.7-0.4,1.5-0.6,2.3-0.5c1.3-0.2,2.7,0.2,3.7,1c1.1,1.2,0.8,3.2-0.2,4.5c-1.1,1.2-2.4,2.2-3.8,3
	c-1.1,0.6-2,1.5-2.7,2.6c-0.1,0.1-0.1,0.3-0.2,0.5H822C820.1,521.4,818.4,520.3,816.9,518.9z"/>
<path class="st1" d="M680.1,456c0,0-3.1,4,1.4,10.2c4.5,6.1,8.2,11.3,6.8,15.1c0,0-6.8-11.4-12.4-11.5
	C670.4,469.6,674,462.9,680.1,456z"/>
<path class="st3" d="M680.1,456c-0.3,0.4-0.5,0.8-0.6,1.3c-5.4,6.4-8.3,12.3-3.1,12.5c4.9,0.1,10.7,8.8,12.1,11
	c0,0.2-0.1,0.3-0.2,0.5c0,0-6.8-11.4-12.4-11.5C670.4,469.6,674,462.9,680.1,456z"/>
<path class="st4" d="M674.4,461.2c0,1.4,0.2,2.6,0.4,2.6c0.2,0,0.3-1.1,0.3-2.6s-0.2-0.8-0.4-0.8
	C674.5,460.4,674.4,459.8,674.4,461.2z"/>
<path class="st4" d="M672.4,462.9c1.2,0.7,2.3,1.1,2.4,0.9c0.1-0.2-0.8-0.9-2.1-1.5s-0.8-0.2-0.9,0S671.2,462.2,672.4,462.9z"/>
<path class="st1" d="M696.5,456c0,0,3.1,4-1.4,10.2c-4.5,6.1-8.2,11.3-6.7,15.1c0,0,6.8-11.4,12.4-11.5
	C706.3,469.6,702.6,462.9,696.5,456z"/>
<path class="st3" d="M696.5,456c0.3,0.4,0.5,0.8,0.6,1.3c5.4,6.4,8.3,12.3,3.1,12.5c-4.9,0.1-10.7,8.8-12.1,11
	c0,0.2,0.1,0.3,0.2,0.5c0,0,6.8-11.4,12.4-11.5C706.3,469.6,702.6,462.9,696.5,456z"/>
<path class="st4" d="M702.2,461.2c0,1.4-0.2,2.6-0.4,2.6c-0.2,0-0.3-1.1-0.3-2.6s0.2-0.8,0.4-0.8
	C702.1,460.4,702.2,459.8,702.2,461.2z"/>
<path class="st4" d="M704.2,462.9c-1.2,0.7-2.3,1.1-2.4,0.9c-0.1-0.2,0.8-0.9,2.1-1.5s0.8-0.2,0.9,0S705.5,462.2,704.2,462.9z"/>
<path class="st5" d="M701.3,480.7c0,0-8.7-0.3-11.3-2.1s-13.3-4.1-14-1.1c-0.7,3-13,14.8-3.2,14.9s22.7-1.5,25.3-3.1
	C700.7,487.7,701.3,480.7,701.3,480.7z"/>
<path class="st6" d="M672.6,491.4c9.8,0.1,22.7-1.5,25.3-3.1c2-1.2,2.8-5.5,3-7.5h0.3c0,0-0.5,7-3.2,8.6c-2.6,1.6-15.5,3.2-25.3,3.1
	c-2.8,0-3.8-1-3.7-2.5C669.4,490.8,670.5,491.4,672.6,491.4z"/>
<circle class="st0" cx="129" cy="60.5" r="21.6"/>
<ellipse transform="matrix(0.2076 -0.9782 0.9782 0.2076 372.8554 513.044)" class="st0" cx="503.1" cy="26.4" rx="21.6" ry="21.6"/>
<circle class="st0" cx="846.2" cy="111.8" r="21.6"/>
<circle class="st0" cx="36.2" cy="258.9" r="36.2"/>
<circle class="st0" cx="71" cy="437.9" r="36.2"/>
<circle class="st0" cx="749.9" cy="280" r="36.2"/>
<path class="st7" d="M450.2,347.8c-1.3,0.1-2.6,0.1-3.8,0.3c-2.1,0.4-4.2,1.2-6,2.4c-9.1,5.2-17.7,12.3-21.5,22.1
	c-0.3,0.6-0.4,1.3-0.3,2c0.2,0.5,0.6,1,1.1,1.4l3.5,3.2c0.4,0.5,1,0.8,1.6,1.1c1,0.2,2,0.2,2.9-0.1c9.7-2.2,20.1-4.8,26.9-12.1
	c3.2-3.5,6.2-8.2,11-8.3c2,0,3.9,0.8,5.8,1s4.3-0.6,4.8-2.5c0.2-1,0-1.9-0.3-2.8l-2.9-9.8c-0.8-2.7-8.9-2.8-11.6-2.3
	C457.3,343.9,454.5,347.4,450.2,347.8z"/>
<path class="st7" d="M484.8,403c-0.1,3.4,0.1,6.7-0.4,10.1c-0.5,2.6-1.3,5.2-2.5,7.5c-1.8,3.8-4.1,7.4-6.8,10.7
	c-2.5,3-5.6,5.8-9.3,7s-8.4,0.3-10.7-2.8c-1.9-2.6-2-6-1.9-9.2c0.3-7.9,1.6-15.9,5.1-23c1.5-3,3.5-5.9,5-8.9
	c3.2-6.3,5.1-13.8,10.7-18.1c3.5,1.6,7.3,2.7,11.1,3c1.5,0.2,5.8,0.3,6.2,2.2c0.3,1.3-2.5,4.9-3,6.2
	C486.2,392.5,485,397.7,484.8,403z"/>
<path class="st8" d="M445.2,258.8c1.2,3.1,2.7,6.1,3,9.3c0.2,2,0,4,0,6c0.2,2.7,0.6,5.5,1.4,8.1l5.6,22.8c0.8,3.4,1.7,6.9,1.2,10.4
	c-0.3,2.3-1.1,4.6-1.1,6.9c0.1,1.8,0.4,3.5,0.8,5.2c1.1,5.3,0.8,10.8-0.8,15.9c-0.2,0.4-0.2,0.8-0.2,1.2c0.1,0.6,0.8,1,1.3,1.4
	c6,3.3,12.5,5.5,19.3,6.4c6.1-14.5,10.4-29.8,12.7-45.4c1.4-9.4,2.1-19,3.9-28.4c0-0.5,0.3-1.1,0.7-1.4c0.7-0.6,1.7-0.2,2.5,0.2
	c10.2,4.9,20.1,10.6,29.4,17c6.7-8.6,9.2-19.8,6.8-30.4c-1.2-4.5-2.9-8.9-5-13.1c-2.3-5.1-5.1-9.8-8.5-14.3
	c-7.4-9.3-18.3-15.2-29.5-19.3c-6.8-2.5-13.8-4.3-20.8-6.1c-3.9-1.1-10.5-4.5-14.3-1.8c-4,2.8-6.7,9.6-8.3,14
	c-2,5.4-3.1,11.1-3.3,16.9C441.8,246.6,442.9,252.9,445.2,258.8z"/>
<path class="st8" d="M525.6,286.3c-2.1,2.3-0.3,5.9-0.7,9c-0.3,1.4-0.8,2.7-1.5,4l-9.6,18.8c-1.6,2.8-2.8,5.8-3.6,9
	c-1.3,6.8,1.4,14.4-2.1,20.4c-1.1,1.9-2.8,3.6-3.3,5.8c-0.3,1.6,0,3.2-0.2,4.9c-0.2,1.9-1.2,3.6-1.8,5.4c-0.4,1.7-0.7,3.5-0.9,5.3
	c-1.2,7.6-5.2,14.6-11.2,19.4c-3.5,2.9-7.9,4.4-12.4,4.2c-4.5-0.4-8.9-3.4-9.8-7.8c-0.3-1.5-0.2-3.1-1.2-4.4
	c-1.3-1.7-4.1-1.8-5.4-3.6l4.9-8.1c1.5-2.5,3.1-5.1,3.3-8.1c0.3-3.6-1.4-7.2-0.8-10.7c0.5-3,2.7-5.6,3.4-8.6
	c0.8-3.8-0.8-7.5-1.7-11.3c-2.2-9.2,0.3-18.8,2.7-28c3.2-12.2,6.5-24.5,13.1-35.3C499.9,273.7,511.9,280.4,525.6,286.3z"/>
<path class="st1" d="M525.7,95.8c0.8,2.1,0.4,4.5,0.2,6.7c-0.3,5,0.7,10,0.5,15.1c-0.2,5.1-1.8,9.9-2.9,14.8
	c-3.1,14.1-2.3,28.7-5.1,42.9c-3.4,17.5-12.2,33.8-13.9,51.6c-0.5,5.6-0.5,11.7-3.6,16.4c-18.4-8.1-35.7-18.3-51.7-30.4
	c3.5-26.1,7-52.4,6.5-78.7c-0.2-3.2,0-6.4,0.7-9.5c0.8-2.6,2-5.1,3.6-7.4c3.9-6.3,8.1-12.3,12.4-18.4c2.7-3.9,5.7-7.9,10-9.7
	s9.5-1,14.2-0.1c5.7,1,11.4,2.1,17.1,3.1C517.1,92.9,524.2,91.7,525.7,95.8z"/>
<path class="st9" d="M388.7,195.8c-2.3-2.3-4.9-4.4-7.6-6.3c3.5-4.3,2.8-10.6,3.7-16.1c0.7-3.6,1.8-7.1,3.2-10.5
	c0.4-0.9,0.9-2,1.9-2.2c0.6-0.1,1.2,0,1.8,0.3c3,1.1,9.3,1,11.6,2.9c2.8,2.4,0.2,7.3-0.8,10.2C401.7,176.2,390.2,197.3,388.7,195.8z
	"/>
<path class="st7" d="M397.4,382.6c1.5,2.4,2.5,5.2,2.9,8c0.2,2.8-0.8,6-3.2,7.5s-5.9,1-8.8,0.1c-12.4-4-22.4-13.1-27.6-25
	c-0.9-2.1-1.7-4.3-3.3-6c-1.2-1.1-2.5-1.9-4-2.6c-3.9-2.2-7.7-5.1-9.5-9.3s-1-9.7,2.8-12.1c2.4-1.4,5.2-1.7,7.8-1
	c2.6,0.7,5.1,1.8,7.4,3.2c3.9,2.1,8.6,3.9,12,6.7c3,2.5,5.7,5.8,8.2,8.7c2.9,3.3,5.7,6.9,8.2,10.5
	C391.2,372.4,398.1,381.6,397.4,382.6z"/>
<path class="st7" d="M324.1,361.6c-0.3,5-1.2,10-2.6,14.9c-0.8,2.7-1.9,5.5-4.1,7.3c-1.9,1.2-4.1,2-6.3,2.3
	c-0.8,0.2-1.6,0.3-2.4,0.1c-1.4-0.3-2.4-1.5-3.2-2.6c-3.3-4.4-6.6-9.1-8-14.5c-2-7.8,0-16.1,3.5-23.4c1.2-2.9,3.1-5.6,5.4-7.8
	c2.8-2.3,6.2-3.8,9.8-4.4c3.7-0.7,8.2-2.3,8.5,2.2C325,344.4,324.8,353,324.1,361.6z"/>
<path class="st8" d="M379.5,173.6c6.9,3.6,14.6,8.1,16,15.7c0.9,4.7-0.8,9.4-0.5,14.2c0.2,4.2,2,8.2,1.8,12.4c-0.2,2-0.6,3.9-1,5.9
	c-0.6,3.7-0.2,7.5-0.4,11.2c-0.3,8.4-3.1,16.5-4.5,24.8c-1,5.9-1.2,11.9-0.7,17.9c0.3,3.9,1,7.7,1,11.6c0,2.8-0.2,5.6-0.7,8.3
	c-1.3,8.7-4,17.1-8,24.9c-4.8,9.5-4.1,21.7-3.6,32.3c0.2,1.5,0,3-0.5,4.3c-1.3,2.3-4.4,2.6-7,2.4c-9.6-0.9-18.6-5.4-25-12.7
	c-0.9-0.9-1.6-2.1-1.8-3.4c-0.2-2.1,1.5-3.9,2.7-5.7c4.2-6,3.1-14.1,3.6-21.5c0.4-5.4,1.6-10.6,3.8-15.5c1.2-2.9,2.8-5.7,3.1-8.8
	c0.3-2.9-0.6-5.8-1.5-8.5l-3-9.5c-4.6-14.8-9.3-29.7-16.4-43.5c-4.6,3-7.9,7.7-9.2,13c-2.6,9.4,1.1,19.9-2.5,29
	c-0.6,1.3-1.1,2.6-1.5,3.9c-0.2,1.2-0.3,2.3-0.2,3.5c0.1,9.7,0.7,19.5,1.8,29.2c0.1,1.5,0.5,2.9,1.2,4.2c0.6,0.9,1.5,1.5,2.1,2.3
	c1.8,2.3,1.4,5.5,1,8.3l-2,13.4c0,0.7-0.3,1.3-0.6,1.9c-0.5,0.5-1.1,0.8-1.7,0.9c-6.4,2-13.1,2.6-19.7,1.8c-2-0.2-3.7-1.5-5.4-2.6
	c-0.2-2,2.3-3.3,2.4-5.3c-0.1-1.2-0.6-2.3-1.5-3.1c-3.7-4.2-8.2-8.7-8.1-14.3c0-1.5,0.4-2.9,0.3-4.4c-0.1-3.8-2.7-7-3.6-10.6
	c-1.1-4.5,0.4-9.1,0.9-13.7c0.8-6.2-0.1-12.4-1-18.6l-3.4-22.6c-0.4-3.5-1.1-7-2.1-10.4c-1.3-3.3-2.7-6.6-4.4-9.7
	c-3.2-6.5-5.8-13.3-8.5-20c-0.8-1.8-1.4-3.8-1.5-5.8c-0.1-3.4,1.6-6.7,3.8-9.3c4.1-4.9,9.7-8.3,16-9.7c1-0.3,2.1-0.3,3.2-0.1
	c0.9,0.3,1.7,0.7,2.5,1.3c15.7,10.2,35.2,12.6,52.9,6.3c1,0.8,2.9,0.4,4-0.1c3.2-1.5,5.8-3.9,8.6-6C365.9,178.8,373,175,379.5,173.6
	z"/>
<path class="st8" d="M172.2,430.4c0.5,1.5,1.3,3,2.4,4.2c3.6,4.7,8.7,8.5,11,14c0.5,1.2,0.9,2.4,1.3,3.6c1.4,3.6,3.6,6.9,6.5,9.4
	c2.2,1.8,4.6,3.4,7.2,4.8c4.4,2.4,9.2,4.6,14.2,4.5c1,0,2-0.1,3-0.4c1.6-0.3,3.1-0.9,4.5-1.6c3.2-1.8,6-5.3,5.4-8.9
	c-0.1-0.7-0.3-1.4-0.6-2c-0.5-1-1.1-2-1.8-2.9c-1.7-2.3-3.4-4.7-5.9-6.2c-2.8-1.7-6.3-2.1-8.8-4.2c-1-0.9-1.8-1.9-2.5-3.1
	c-2.3-3.5-4-7.3-5-11.3c-0.8-3-1.3-6.3-3.5-8.5s-5.2-2.7-8.1-3.2c-1-0.2-2-0.3-3-0.3c-1.4,0-2.9,0.5-4.2-0.2s-1.8-1.6-3.4-1.5
	c-1.3,0.2-2.5,0.7-3.5,1.5C173.4,420.9,170.8,425.9,172.2,430.4z"/>
<path class="st10" d="M207.7,435c0.6,3.4,1.6,7,4.3,9.2c1.7,1.4,4,2.3,4.8,4.4s-0.2,4.6-1.6,6.4c-1.8,2.4-3.9,4.4-6.4,5.9
	c-2.1,1.3-4.6,2.3-7.1,1.7c-2-0.5-3.6-1.9-5.1-3.3c-3.4-3.2-6.9-6.5-8.8-10.7c-2-4.5-2.1-9.7-4.3-14.1c-1.3-2.6-3.2-4.8-4-7.6
	c-0.3-1-0.3-2.1,0-3.1c0.8-1.5,2.3-2.4,3.9-2.3c1.6,0.1,3.2,0.4,4.7,1c4.5,1.6,9.1,2.9,13.8,3.9c1.9,0.4,3,0.3,4,2.1
	C206.9,430.6,207.5,432.8,207.7,435z"/>
<path class="st10" d="M219.3,463.6c-0.7,1.1-1.3,2.4-1.5,3.7c-0.2,1-0.3,2.1-0.1,3.1c1.6-0.3,3.1-0.9,4.5-1.6c3.2-1.8,6-5.3,5.4-8.9
	c-0.1-0.7-0.3-1.4-0.6-2c-1-0.2-2,0.1-2.7,0.8C222.3,460.2,220.7,461.8,219.3,463.6z"/>
<path class="st8" d="M183.5,387.7c-0.4,0.9-0.6,2-0.4,3c0.5,2,2.5,3.1,4.4,4.1l17.6,8.6c1.2,0.6,2.4,1.2,3.6,1.9
	c3,1.8,5.4,4.4,7.9,6.8s5.4,4.6,8.8,5.5c3.4,0.7,6.9,0.3,10-1.3c1.7-0.8,3.2-1.9,4.6-3.1c1.2-1,2.3-2.2,3.3-3.4
	c0.9-0.9,1.5-2,1.8-3.2c0.3-1.8-0.6-3.6-1.6-5.1c-0.6-0.9-1.3-1.7-2-2.5c-6.7-7.4-17.6-11.2-27-12.7c-3.7-0.6-7.3-2-10.9-3.1
	s-7.4-2-11.1-1.5S184.9,384.2,183.5,387.7z"/>
<path class="st3" d="M183.5,387.7c-0.4,0.9-0.6,2-0.4,3c0.5,2,2.5,3.1,4.4,4.1l17.6,8.6c1.2,0.6,2.4,1.2,3.6,1.9
	c3,1.8,5.4,4.4,7.9,6.8s5.4,4.6,8.8,5.5c3.4,0.7,6.9,0.3,10-1.3c1.7-0.8,3.2-1.9,4.6-3.1c1.2-1,2.3-2.2,3.3-3.4
	c0.9-0.9,1.5-2,1.8-3.2c0.3-1.8-0.6-3.6-1.6-5.1c-0.6-0.9-1.3-1.7-2-2.5c-6.7-7.4-17.6-11.2-27-12.7c-3.7-0.6-7.3-2-10.9-3.1
	s-7.4-2-11.1-1.5S184.9,384.2,183.5,387.7z"/>
<path class="st10" d="M227.5,393.2c1.4,1.5,2.5,3.2,3.3,5.1c0.8,1.2,1,2.7,0.8,4.1c-0.4,0.9-1,1.8-1.8,2.4l-1.8,1.6
	c-0.5,0.5-1.1,1-1.8,1.4c-1,0.4-2,0.5-3,0.5c-2.4,0-4.9,0-6.8-1.4c-2.6-1.9-3.1-5.8-1.9-8.8s3.7-5.2,6.2-7.3
	C222.7,389.1,226.1,391.6,227.5,393.2z"/>
<path class="st10" d="M238.2,403.5c-0.3,1.7-0.2,3.4,0.5,5c0.4,1.5,0.9,3,1.3,4.5c0,0,0,0,0,0.1c1.2-1,2.3-2.2,3.3-3.4
	c0.9-0.9,1.5-2,1.8-3.2c0.3-1.8-0.6-3.6-1.6-5.1c-0.6-0.9-1.3-1.7-2-2.5c-0.5,0.6-0.9,1.2-1.2,1.6
	C239.3,401.3,238.6,402.3,238.2,403.5z"/>
<path class="st8" d="M192.2,329c-2.1,8.7-1.2,17.8-0.1,26.7c0.8,6.8,1.8,13.8-0.2,20.3c-0.7,2.4-1.9,4.9-1.5,7.4
	c0.9,4.7,6.5,6.5,11.3,7.4c1.4,0.3,2.8,0.4,4.2,0.2c1.4-0.4,2.7-1.1,3.8-2c6.7-4.9,11.8-11.7,14.6-19.5c1.8-5.2,2.4-10.8,2.9-16.3
	c0.9-9.2,1.9-18.6,0.5-27.8c-0.4-2.7-1-5.4-1.2-8.1c-0.3-4.7-0.1-9.5,0.8-14.1c1.7-11.6,4.3-23,7.8-34.1c-9.5,1.3-19.2-0.5-27.7-5
	c1.6,0.9-0.2,14.9-0.4,16.9c-0.6,5.9-1.7,11.7-3.2,17.4C201,309.1,194.8,318.4,192.2,329z"/>
<path class="st3" d="M192.2,329c-2.1,8.7-1.2,17.8-0.1,26.7c0.8,6.8,1.8,13.8-0.2,20.3c-0.7,2.4-1.9,4.9-1.5,7.4
	c0.9,4.7,6.5,6.5,11.3,7.4c1.4,0.3,2.8,0.4,4.2,0.2c1.4-0.4,2.7-1.1,3.8-2c6.7-4.9,11.8-11.7,14.6-19.5c1.8-5.2,2.4-10.8,2.9-16.3
	c0.9-9.2,1.9-18.6,0.5-27.8c-0.4-2.7-1-5.4-1.2-8.1c-0.3-4.7-0.1-9.5,0.8-14.1c1.7-11.6,4.3-23,7.8-34.1c-9.5,1.3-19.2-0.5-27.7-5
	c1.6,0.9-0.2,14.9-0.4,16.9c-0.6,5.9-1.7,11.7-3.2,17.4C201,309.1,194.8,318.4,192.2,329z"/>
<path class="st8" d="M244.2,278c4,11.6,3.1,24.2,1.4,36.4s-4.3,24.3-3.5,36.5c0.3,4.8,1.1,9.7-0.3,14.3c-0.8,2.2-1.8,4.4-3.1,6.4
	l-31.9,55.2c-1.7,2.9-4.7,4.8-8,5c-3.4,0.2-6.8-0.9-9.9-2.1c-2.1-0.7-4.1-1.8-5.8-3.2c-1.7-1.4-2.6-3.6-2.4-5.9
	c1.4-9.6,3.6-19.4,5.2-29c1.1-6.5,3.4-12.8,6.9-18.4c2.5-4,5.5-7.6,7.6-11.8c6.1-11.9,4-26.5-0.7-39s-11.8-24.2-15.5-37
	c-1.1-3.6-1.7-7.3-1.9-11c-0.1-7.8,2.9-15.3,8.4-20.9c0.8-0.9,1.8-1.6,2.9-2c1.3-0.3,2.7-0.3,3.9,0.1
	C215.1,255.1,238.3,260.9,244.2,278z"/>
<path class="st10" d="M531,105c0.6,4.4-1,8.8-3.2,12.6c-8.5,14.2-28.1,20.5-43.3,13.9c-6.2-2.7-11.5-7.2-16.7-11.7
	c-1.7-1.5-3.5-3.1-4.4-5.2c-1.5-3.8,0.3-8.2,3.4-10.9s7-4,10.9-5.2C490.6,94.4,527.9,81.7,531,105z"/>
<path class="st8" d="M523.4,91.1c11.8,9.5,29,18.6,42.4,25.6c4.5,2.4,9.6,5.1,11.2,10c0.9,2.6,0.6,5.5,0.3,8.2
	c-0.6,5.3-1.1,10.7-3.2,15.6c-2.4,5.8-6.7,10.5-10.1,15.8c-6,9.2-9.5,20-16.9,28.1c5,16.6,10.5,33.2,12.2,50.4c0.1,0.5,0,1-0.2,1.4
	c-0.2,0.3-0.5,0.5-0.8,0.7l-12.4,8.2c-1.4,0.8-2.6,1.8-3.6,3c-2.2,2.9-1.9,6.9-3.3,10.2c-1.5,3.3-4.3,5.8-7.7,7
	c-3.4,1.2-7,1.6-10.6,1.1c-4.5-0.3-8.9-1.8-12.6-4.5c-3.2-2.4-5.4-5.8-7.6-9.1c-1.6-2.3-3-4.7-4-7.3c-1.3-3.7-1.4-7.7-1.4-11.6
	c0-7.5,0.7-14.9,2.1-22.2c0.6-2.9,1.3-5.8,1.8-8.7c0.9-5.9,0.7-11.9,1.4-17.9c0.9-6.7,2.4-13.2,4.5-19.7c1.1-4,2-8,2.6-12.1
	c1.2-7.2,3.5-14.1,5.8-21l4-11.8c0.8-2.6,1.7-5.1,2.7-7.6c1.9-4.6,4.3-9.2,4.9-14.1c0.7-5.4-5.1-11.8-3.2-16.9
	C522.1,91.4,523,90.7,523.4,91.1z"/>
<path class="st8" d="M573.8,123.9c2.8,1.2,4.3,4.2,5.3,7.1c2.2,6.5,2.8,13.4,1.6,20.2c-0.4,1.7-0.7,3.4-0.8,5.2c0,2,0.2,4,0.6,6
	c1,7.6,0,15.4,0.3,23.1c0.3,8.7,2.2,17.9-1.4,25.7c-2.4,5.2-7,9.1-11.5,12.7c-16.8,13.1-35.4,23.8-55.2,31.8
	c3.4-4.1,3.5-10.3,1.2-15.1c-2.3-4.8-6.5-8.5-11-11.3c5.7-1.3,11.3-3.3,16.5-5.9c10.5-5.3,19.5-13.1,28.3-20.8
	c1.3-0.9,2.3-2.2,2.9-3.7c0.9-3-1.6-5.9-3.3-8.5c-5.2-8-4-18.4-1.8-27.7c2.4-10.1,6-20.3,12.5-28.4
	C562.2,129.2,567.5,125.3,573.8,123.9z"/>
<path class="st10" d="M511.8,256c-0.9,1.5-2.1,2.7-3.4,3.8c-3,2-7.1,1.2-10.5-0.2c-3.1-1.3-6-3.1-8.5-5.4c-1.1-1.1-2.4-2.1-3.8-2.8
	c-2.6-1-6.3-0.2-7.8-2.7c-0.2-0.3-0.3-0.6-0.2-0.9c0.1-0.9,1.2-1.1,2.1-1.2c4.1-0.3,8-1.5,11.6-3.6c-1.1-0.8-2.1-1.8-2.8-3
	c-0.3-0.4-0.5-0.9-0.5-1.4c0.1-0.6,0.4-1.1,0.9-1.4c6.6-6.2,16.2-7.8,24.5-4.1c0.8,0.3,1.5,0.8,2,1.5c0.4,0.6,0.6,1.3,0.7,2
	c0.7,2.8,3,7,2.2,9.8C517.3,249.8,513.8,253.2,511.8,256z"/>
<path class="st8" d="M443.6,243.4c12.4-14.4,18-33.3,23.2-51.6l3.7-13l8.9-31.3c1.3-4.6,2.6-9.2,3.5-13.9c1.5-8.1,1.6-16.4,1.5-24.7
	c-0.1-3.4-0.9-6.8-2.3-9.9c-0.9-2.2-1.3-4.5-2-6.7c-0.9-3.1-2.3-6.1-4-8.8c-0.5-0.8-1.1-1.5-1.8-2.2c-1.2-0.8-2.6-1.4-4.1-1.7
	c-3.2-0.9-6.5-1.4-9.8-1.5c-3.3,0.1-6.7,1.3-8.9,3.8c-1.6,1.9-2.4,4.4-3.7,6.6c-0.6,0.9-1.1,1.8-1.6,2.8c-0.5,1.5-0.9,3-0.9,4.5
	c-0.5,6.3-1,12.6-1.3,18.9c-0.2,2.9-0.3,5.8-0.2,8.6c0.1,2.2,0.3,4.5,0.6,6.7l2.4,21.8c0.5,5.1,0.2,9.9,0.6,15.1
	c1.1,12.4-1.5,24.8-4.3,37c-1.3,5.8-2.7,11.7-5.5,16.9c-2.5,4.6-6.2,9.4-5.2,14.5c0.3,1.8,1.2,3.5,1.4,5.3c-0.1,1.1,0,2.3,0.3,3.4
	c0.8,1.5,2.6,2.3,4.3,2C440.4,245.7,442.2,244.8,443.6,243.4z"/>
<path class="st10" d="M445.1,185.9c0.4,2.9,0.1,5.8,0.2,8.7c0.3,3.7,1,7.4,2,11c1,4,2.3,8.5,5.8,10.7c0.9,0.5,1.7,1,2.5,1.6
	c0.8,0.6,1.1,1.7,0.8,2.7l-2.8-0.5c1.2,0.9,1.5,2.7,0.5,3.9c-0.9,1.2-2.7,1.5-3.9,0.5c-0.2-0.1-0.3-0.3-0.5-0.4
	c0.1,0.9,0,1.8-0.2,2.7c-0.3,0.9-1.1,1.5-2,1.5c-0.5-0.1-1-0.3-1.4-0.6l-7.2-4.4c-2.2-1.2-3.9-2.9-5.2-5l-3.1-4.7
	c-0.7-0.9-1.2-1.9-1.6-3c-1.2-4,2.1-8.4,0.4-12.2c-0.5-0.9-1.1-1.8-1.8-2.6c-3.6-5-3.4-11.8-3-18c0.1-2.1,0.5-4.6,2.4-5.5
	c1.5-0.7,3.3-0.1,4.7,0.8s2.6,2.1,4.2,2.6c1,0.3,2.1,0.4,3.1,0.7c1.4,0.5,2.7,2.4,3.6,3.5C444.1,181.6,444.9,183.7,445.1,185.9z"/>
<path class="st9" d="M357.5,96c-0.8,1.9-2,3.7-3.5,5.3c-1.5,1.5-3.7,2.3-5.8,2c-2.2-0.4-3.9-2.3-5.3-4c-3.8-4.5-7.7-9.1-10.3-14.4
	c-3.9-8.1-4.6-17.4-5.1-26.4c-0.1-2.3-0.3-4.8,0.9-6.8c1.4-2.6,4.4-3.8,7.2-4.8l15.2-5.7c0.9-0.4,2-0.6,3-0.6
	c2.4,0.4,3.3,3.3,3.9,5.6c1.2,4.2,3.1,8.1,5.7,11.6c3.4,4.6,11.1,10.7,6.7,16.4C364.7,80.9,361.4,88.3,357.5,96z"/>
<path class="st11" d="M377,70c6.7,6.3,8.9,16.1,8.6,25.2s-2.9,18.1-4.3,27.1s-1.7,18.7,2.2,27c1.3,2.9,3.2,5.5,4.1,8.5
	c0.8,3,1.1,6.1,0.8,9.1c0,3.2-0.6,6.4-1.8,9.4c-2.1,4.7-6.5,8-10.7,11c-8.5,6.2-17.3,12.5-27.3,15.7c-6.8,2.2-14,2.9-21.1,3.3
	c-4.8,0.4-9.7,0.2-14.5-0.4c-8.4-1.4-16.1-5.5-21.9-11.6c-1-1-1.9-2.2-2.5-3.4c-0.6-1.7-0.9-3.4-0.9-5.2c-0.2-6.6-0.2-13.1,0.1-19.7
	c0.2-6.3,1-12.5,2.6-18.6c1.9-7,5.2-13.6,7.7-20.4c8.7-23.7,7.9-50.7,20-72.8c2.6-4.8,7-9.8,12.4-9.1c1,0.1,2,0.5,2.7,1.3
	c0.6,0.9,1,2,1,3.1c1.3,10.8,3.1,21.8,8.2,31.5c2,3.8,5,9.6,9.6,10.6s7.3-3.4,9.8-6.5C366.2,79.4,371.3,74.3,377,70z"/>
<path class="st8" d="M409,53.8c1.4,0.7,2.6,1.6,3.8,2.7c3,2.8,4.1,7.2,4.1,11.3s-1,8.2-1.6,12.3c-1.6,11-0.2,22.3,0.4,33.4
	c0.2,1.8,0.1,3.6-0.3,5.4c-0.5,1.7-1.5,3.2-2.2,4.8c-1.9,4.8-0.5,10.3-1.6,15.4c-1.2,5.4-5.3,10.3-4.5,15.8c0.3,2.1,1.3,4.1,1.8,6.2
	s0.1,4.7-1.8,5.8s-4.5,0.3-6.7,0.9c-0.9,0.3-1.7,0.7-2.6,1.2c-3.4,1.5-7.4,1-10.7-0.7c-3.3-1.8-6.2-4.1-8.7-6.9
	c-3.8-3.9-7.5-8.2-9.2-13.4c-2.4-7.5-0.3-15.7,2.4-23.2s5.8-15,5.3-22.9c-0.3-4.4-1.7-8.7-2.5-13.1c-1-6-1.4-12.2-1.1-18.3
	c0.1-4.5,0.4-9.1,2.4-13.2c2.8-5.5,8.2-9.2,14.3-9.8C397.1,46.8,403.1,50.4,409,53.8z"/>
<path class="st3" d="M390.1,150.4c0.1,3.2,0.6,6.4,1.7,9.4c1.8-4.1,2-8.7,2.2-13.1c1-15.3,4.4-29.7,8-44.5c-2.6,2-4.1,7-5.4,10
	C391.7,124.3,389.4,137.4,390.1,150.4z"/>
<path class="st8" d="M322.7,43.9c-4.8,1.3-9,4.1-13.7,6c-4.9,2-10.1,2.8-15.2,4.1c-11.8,2.9-23.6,8.2-30.7,18
	c-5.2,7.2-7.4,16.2-11,24.4c-3,6.9-7,13.3-9.2,20.5c-2.9,9.3-2.6,19.3-1.9,29.1c0.6,8,1.5,16.1,5.1,23.2c1.9,3.7,4.5,7.1,6.4,10.8
	c2.3,4.5,3.5,9.4,5.4,14s4.7,9.2,9.1,11.6l7.3-4.3c10.9-6.4,21.8-12.8,32.3-19.7c9.2-6,18.5-12.9,23.4-22.8
	c4.3-8.7,4.8-18.9,3.6-28.6s-3.7-19.1-5-28.8c-1.7-12.1-1.4-24.5,0.8-36.5c1-5.4,3.7-11.1,4.2-16.5
	C334.3,42.6,326.9,42.8,322.7,43.9z"/>
<path class="st10" d="M277.5,202.9c5.6,5.3,13.6,6.8,20.6,10c5.2,2.4,9.9,5.8,13.8,10c2.2,2.4,4.2,5.6,3.2,8.6
	c-0.9,2.6-3.7,3.9-6.3,4.9c-3.2,1.2-6.7,2.3-9.9,1c-1.9-0.7-3.4-2.1-5.1-3.1c-4.2-2.5-9.5-2.5-13.8-4.8c-6.1-3.2-9.1-10.4-14.8-14.2
	c-3.1-2.1-7.4-3.8-7.8-7.6c0-1.4,0.3-2.7,0.8-3.9c1.1-3.1,3.1-13.6,7.5-13.3C270.7,190.7,274,200.3,277.5,202.9z"/>
<path class="st10" d="M248.3,156c1.8,6.6,6.1,12.2,10.5,17.4c3.2,3.8,6.6,7.8,6.8,12.7c0.1,4.6-3,8.9-7,11.3s-8.7,3.1-13.3,3.4
	c-3.7,0.4-7.4,0.1-11.1-0.8c-9.1-2.5-15.5-10.4-22.7-16.6c-4.3-3.6-9.1-6.8-12.3-11.4s-4.6-11.1-1.4-15.7c1.2-1.5,2.5-2.8,4-4
	c5.5-4.7,10.1-10.3,13.8-16.6c1.5-2.5,2.9-5.2,5.4-6.7c3.6-2.2,8.1-1.2,12.2-0.1c4.4,1.1,16.8,3.4,17.6,9c0.4,2.3-2.5,5.9-2.9,8.4
	C247.2,149.5,247.4,152.8,248.3,156z"/>
<path class="st12" d="M270.9,168.5c1.3,2.4,2.4,4.9,3.2,7.4c3,10.6-2.4,21.5-5,32.2c-3.3,13.7-1.9,28.1-2.1,42.2
	c-0.1,6.5-0.8,13.6-5.4,18c-1.2,1.1-2.6,2.1-3.5,3.5c-0.5,1.1-0.9,2.2-1.1,3.3c-2.6,9.1-12.1,14.3-21.1,11.7
	c-1.3-0.4-2.5-0.9-3.6-1.5c-3.8-2.1-7.1-5.8-11.4-5.9c-1.4,0.1-2.7,0.2-4.1,0.5c-4.3,0.4-8.5-1.2-12.6-2.7c-1-0.3-1.9-0.8-2.7-1.4
	c-0.7-0.7-1.2-1.6-1.9-2.3c-2.5-2.7-6.7-2.2-10.2-2.9c-5.4-1.2-9.7-5.4-10.9-10.9c-0.7-3.4-0.1-7,0.5-10.5l2.7-15.5
	c1.1-5.7,1.9-11.4,2.3-17.2c0.3-6.5-0.2-13-1.7-19.4c-1.2-5.2-2.9-10.3-3.6-15.6c-1.1-9.5,1.4-19.1,7-26.8c1.4-1.9,3.2-3.8,5.6-4
	c1.9-0.2,3.7,0.9,5.4,1.8c14.4,8.5,28.9,16.9,43.6,25.1c4,2.2,8.1,4.5,12.5,5.6c1.3,0.3,3.3,0.2,3.5-1.2c0-0.5-0.1-1-0.4-1.5
	c-2.5-4.8-6.1-8.9-9-13.5s-5.1-10-4.2-15.3c1.2-7.4,8-12.2,13.6-6.5C262.6,152.1,266.8,160.5,270.9,168.5z"/>
<path class="st10" d="M226.1,261.9c11.7,0.8,23.7,1.5,34.6,6c3.5,1.4,7.2,3.3,10.9,2.4c1.8-0.6,3.5-1.5,5-2.7
	c4.5-3.3,8.8-7,12.8-10.9c-0.4-2.2-3.4-2.5-5.6-2.5c-5.4,0-10.8-1.3-15.6-3.7c-1.6-1-3.3-1.7-5-2.3c-4.8-1.3-9.6,1.2-14.4,2.4
	c-7.1,1.8-14.5,0.8-21.7-0.3l-19.5-2.9c-1.8-0.3-3.9-0.5-5.3,0.6c-1,0.9-1.6,2.1-1.9,3.4c-2.4,8-1.2,8.7,6.7,9.2L226.1,261.9z"/>
<circle class="st3" cx="491.8" cy="91" r="32"/>
<ellipse transform="matrix(0.1602 -0.9871 0.9871 0.1602 324.3551 560.5137)" class="st10" cx="491.6" cy="89.6" rx="32" ry="32"/>
<path class="st8" d="M518.6,49c2.6,1.6,5.2,3.3,6.6,5.9c0.8,1.8,1.3,3.7,1.7,5.6c1.8,6,6.4,11.2,6.7,17.5
	c0.3,6.9-4.8,12.8-10.7,16.4c-1.3,1-2.9,1.5-4.6,1.5c-1.7-0.1-3.2-1.2-4.7-1.9c-6.6-2.9-13.9,0.8-20.9,2.5
	c-7.2,1.7-14.8,1.3-21.8-1.3c-3.8-1.4-7.4-3.5-9.7-6.8s-3.2-7.8-1.2-11.3c1-1.8,2.7-3.4,2.5-5.4c-0.1-1.2-0.8-2.3-1-3.5
	c-0.3-1.9,0.7-3.8,1.7-5.4c4.6-7.4,10.5-14.1,17.3-19.6c2-1.6,4.3-3.2,6.9-3.4c5.3-0.2,9.8,3.7,15.2,3.7
	C508.9,43.7,513.3,45.7,518.6,49z"/>
<circle class="st3" cx="373.8" cy="49.9" r="33"/>
<circle class="st9" cx="374.4" cy="49.1" r="33"/>
<path class="st8" d="M392,67.7c4.7,2.6,10.4,2.3,15.6,1.2c2.9-0.6,5.7-1.7,8.2-3.5c2.5-1.8,4-4.6,4.1-7.6c0-3.3-2.2-6.4-2.5-9.7
	c-0.3-4.2,2.4-8.1,2.7-12.4s-1.8-8.1-3.8-11.7c-3.5-6.2-7.2-12.6-12.5-17.4s-12.7-7.8-19.7-6.2c-3.4,0.8-6.6,2.6-10.1,3
	c-3.1,0.3-6.2-0.7-9.3-1s-6.6-0.2-8.8,2c-1.2,1.2-2,2.9-3.4,3.8c-1,0.4-2,0.8-3,1.1c-3.6,1.5-5.3,5.5-6.5,9.2L334.3,43
	c2.9,2,6.3,2.9,9.5,4.4s6.2,4,6.8,7.4c0.5,2.6-0.4,5.6,1.1,7.8c1.4,2,4.2,2.3,6.6,2s4.8-1.2,7.2-0.8c6,0.9,8.2,4.6,13.8,0
	S386.8,64.8,392,67.7z"/>
<circle class="st3" cx="234.1" cy="123.5" r="30"/>
<circle class="st10" cx="235.3" cy="121.9" r="30"/>
<path class="st8" d="M258.2,92.5c-7.1-5.5-15.2-9.7-23.7-12.5c-5.5-1.8-11.4-3-17-1.4c-7.5,2.1-17.6,5.4-22.3,11.7
	c-2.3,3.1-4.6,6.3-5.7,10c-2.2,7.5,0.9,15.4,0.7,23.2c-0.2,9.1-5.1,17.4-10.3,24.8s-6.3,18-9.4,26.5c-1.1,2.9-1.4,7,1.3,8.5
	c2.4,1.3,5.3-0.3,7.5-1.9l13.4-9.6c1-0.9,2.2-1.5,3.5-1.9c2.8-0.6,5.4,1.1,7.7,2.7l28,19.8c1.1-2.3,1.2-5,0.1-7.3
	c2.6,0.8,4.5,3,6.9,4.6s5.8,2.1,7.5-0.1s0.4-5.1-1.5-6.9s-4.3-2.8-6.2-4.6c-3.6-3.6-4-9.3-6.3-13.9c-1.6-3.2-4.3-5.9-5.5-9.3
	c-1.9-5.6,0.6-11.6,3-16.9c2.9-6.4,6.2-13.1,12.3-16.5c2.1-1.1,4.4-1.8,6.5-2.8c5.3-2.5,11.9-8.5,14.5-13.9
	C265.6,100.1,262.1,95.5,258.2,92.5z"/>
<path class="st3" d="M212.8,191.7c2.9,1.8,6.1,3,8.9,4.9s5.3,4.8,5.4,8.2c0.1,3.2-2,6.1-4,8.7l-24.4,32l12.4,3.3
	c-2,2.8-2.5,6.3-3.5,9.5s-3,6.6-6.3,7.5c-3,0.8-6.1-0.8-9.2-0.6c-2.3,0.1-4.5,1.2-6.7,1.3c-3,0.1-5.7-1.4-8.1-3.1
	c-5.5-3.7-10.9-8.9-10.9-15.5c0.1-2.2,0.6-4.4,1.3-6.5c3.6-11.7,7.3-23.7,14.8-33.4c4-5.2,8.9-9.6,13.8-13.9c1.1-1.1,2.4-2,3.9-2.7
	c3.2-1.2,6.7,0.3,10,1.2s7.5,1.1,9.4-1.7"/>
<path class="st12" d="M211.8,189.7c2.9,1.8,6.1,3,8.9,4.9s5.3,4.8,5.4,8.2s-2,6.1-4,8.7l-24.4,31.9l12.4,3.3c-2,2.8-2.5,6.3-3.5,9.5
	s-3,6.6-6.3,7.5c-3,0.8-6.1-0.8-9.2-0.6c-2.3,0.1-4.5,1.2-6.7,1.3c-3,0.1-5.7-1.4-8.1-3.1c-5.5-3.7-10.9-8.9-10.9-15.5
	c0.1-2.2,0.6-4.4,1.3-6.5c3.6-11.7,7.3-23.7,14.8-33.4c4-5.2,8.9-9.6,13.8-14c1.1-1.1,2.4-2,3.9-2.7c3.2-1.2,6.7,0.3,10,1.2
	s7.5,1.1,9.4-1.7"/>
<g class="st13">
	<path d="M462.3,81.9c2.3,3.2,6,5.4,9.7,6.8c7,2.6,14.6,3,21.8,1.3c7-1.7,14.3-5.4,20.9-2.5c1.5,0.7,3,1.7,4.7,1.9
		c1.7,0,3.3-0.6,4.6-1.6c4-2.5,7.8-6.1,9.5-10.4c0,0.2,0,0.4,0.1,0.7c0.3,6.9-4.8,12.8-10.7,16.4c-1.3,1-2.9,1.5-4.6,1.5
		c-1.7-0.1-3.2-1.2-4.7-1.9c-6.6-2.9-13.9,0.8-20.9,2.5c-7.2,1.7-14.8,1.3-21.8-1.3c-3.8-1.4-7.4-3.5-9.7-6.8s-3.2-7.8-1.2-11.3
		l0.2-0.2C460.6,78.8,461.3,80.4,462.3,81.9z"/>
	<path d="M463.6,65.2c0.1,1.5-0.8,2.8-1.7,4.1c-0.1-0.3-0.2-0.7-0.3-1c-0.3-1.8,0.6-3.5,1.5-5.1C463.4,63.9,463.6,64.5,463.6,65.2z"
		/>
</g>
<path class="st3" d="M345.2,15.2l-8.6,24.6c2.9,2,6.3,2.9,9.5,4.4s6.2,4,6.8,7.4c0.5,2.6-0.4,5.6,1.1,7.8c1.4,2,4.2,2.3,6.6,2
	s4.8-1.2,7.2-0.8c6,0.9,8.2,4.6,13.8,0.1s7.6,0.8,12.7,3.8c4.7,2.6,10.4,2.3,15.6,1.1c2.9-0.6,5.7-1.7,8.2-3.4
	c0.3-0.3,0.7-0.6,1-0.9c-0.8,1.6-1.9,3.1-3.4,4.2c-2.5,1.7-5.3,2.9-8.2,3.5c-5.2,1.2-11,1.5-15.6-1.1c-5.2-2.9-7.3-8.2-12.7-3.8
	s-7.8,0.9-13.8,0c-2.4-0.4-4.8,0.5-7.2,0.8c-2.4,0.3-5.2,0-6.6-2c-1.5-2.2-0.6-5.2-1.1-7.8c-0.6-3.4-3.7-5.9-6.8-7.4
	s-6.6-2.5-9.5-4.4l8.6-24.7c1-2.7,2.1-5.6,4.1-7.6C346.3,12.3,345.7,13.7,345.2,15.2z"/>
<g class="st13">
	<path d="M234.3,186.2c2.2,1,5,1.1,6.4-0.7c1.6-2,0.4-5.1-1.5-6.9s-4.3-2.8-6.2-4.6c-3.6-3.6-4-9.3-6.3-13.9
		c-1.6-3.2-4.3-5.9-5.5-9.3c-1.9-5.6,0.6-11.6,3-16.9c2.9-6.4,6.2-13.1,12.3-16.5c2.1-1.1,4.4-1.8,6.5-2.8
		c5.3-2.5,11.9-8.5,14.5-13.9c2.2-4.5-0.9-8.9-4.5-11.9c1.8,1.1,3.5,2.4,5.2,3.6c3.9,3,7.3,7.6,5,12.3c-2.6,5.4-9.2,11.3-14.5,13.9
		c-2.1,1-4.4,1.7-6.5,2.8c-6.1,3.3-9.4,10.1-12.3,16.5c-2.4,5.4-4.9,11.4-3,16.9c1.2,3.4,3.8,6.1,5.5,9.3c2.3,4.6,2.7,10.3,6.3,13.9
		c1.8,1.8,4.3,2.9,6.2,4.6s3,4.8,1.5,6.9s-5.2,1.6-7.5,0.1C237.3,188.6,235.9,187.2,234.3,186.2z"/>
	<path d="M173.7,177.3l13.4-9.6c1-0.9,2.2-1.5,3.5-1.9c2.8-0.6,5.4,1.1,7.7,2.7l28,19.8c1.1-2.3,1.2-5,0.1-7.3
		c2.6,0.8,4.4,2.9,6.7,4.4c-0.3-0.1-0.7-0.3-1-0.4c1,2.3,1,5-0.1,7.3l-28-19.8c-2.3-1.6-5-3.4-7.7-2.7c-1.3,0.4-2.5,1-3.5,1.9
		l-13.4,9.6c-2.2,1.6-5.1,3.3-7.5,1.9c-1.3-0.8-2.1-2.3-2.1-3.9C171.1,178.9,172.5,178.2,173.7,177.3z"/>
</g>
<path class="st11" d="M507.2,242.6c0,0-57.3,4.6-68.7-3.5l52.4-8.1L507.2,242.6z"/>
<path class="st3" d="M507.2,242.6c0,0-57.3,4.6-68.7-3.5l52.4-8.1L507.2,242.6z"/>
<path class="st11" d="M507.2,242.6l-16-10.2c0,0-47.9,13.8-61,8.1l13.3-18.7l47.4,9.2L507.2,242.6z"/>
<path class="st8" d="M436,107.9c-1.8,2.2-3.2,4.7-4.2,7.4c-0.5,1.4-0.7,2.9-1.1,4.3c-1.1,3.6-2.8,6.9-5,9.9
	c-4.9,7.2-11.1,14.1-12.3,22.7c-0.6,4.2,0.1,8.6,0.9,12.8c0.5,2.8,1.2,5.5,2.4,8.1c1.3,2.7,3.2,5.1,4.6,7.8c1.3,2.6,2.4,5.3,3.3,8.1
	c1.7-1.7,2.7-4,4.1-6s3.4-3.8,5.8-3.8c2.8,0,5.1,2.3,7.8,2.7c0.4,0.1,0.9,0,1.3-0.1c1-0.5,1.1-1.8,1-2.9c-0.8-7.6-5.1-15-3.1-22.3
	c1.9-6.8,8.6-11,12.1-17.1c2.6-4.4,3.3-9.6,4-14.7c0.8-6.1,1.7-12.1,1.3-18.2c-0.2-3.1-2.6-22.5-7.1-20.4c-1.5,0.7-2.9,3.7-3.9,5
	l-4,5.7L436,107.9z"/>
<polygon class="st11" points="316.3,233 284.1,259.2 242.7,251.8 270.6,229.9 "/>
<polygon class="st3" points="317.5,231.4 285.3,257.6 243.9,250.2 271.8,228.3 "/>
<polygon class="st11" points="317.2,230 285.1,256.2 243.7,248.8 271.5,226.9 "/>
<polygon class="st3" points="318.2,227 286,253.2 244.6,245.8 272.5,223.9 "/>
<polygon class="st11" points="317.9,225.6 285.8,251.8 244.4,244.4 272.2,222.5 "/>
<path class="st8" d="M741.1,583.4L741.1,583.4c2.6-1.3,5.7-0.2,6.9,2.4c0.3,0.6,0.5,1.2,0.5,1.9l1.8,23.2l-10.6,1.9l-5.6-16.8
	L741.1,583.4z"/>
<path class="st8" d="M369.5,427.9L207,510.3c-5.6,2.8-7.8,9.7-4.9,15.2c1.1,2.2,2.9,3.9,5,5l350.1,175.7c12.6,6.3,27.6,6,39.9-1
	l147.4-83.1c5.4-3.1,7.3-10,4.2-15.4c-1.1-2-2.8-3.6-4.9-4.6L379.5,427.8C376.4,426.2,372.7,426.3,369.5,427.9z"/>
<path class="st8" d="M205.9,496l-5.1,3.8l-0.4,18.1c-0.1,2.9,1.5,5.5,4.1,6.9l356,182.7c2.6,1.3,5.8,0.3,7.1-2.3
	c0.4-0.8,0.6-1.6,0.6-2.4v-26.3L205.9,496z"/>
<path class="st11" d="M369.5,406.9L207,489.4c-5.6,2.8-7.8,9.6-5,15.2c1.1,2.2,2.8,3.9,5,5l350.1,175.7c12.6,6.3,27.6,6,39.9-1
	l147.4-83.2c5.4-3.1,7.3-10,4.2-15.4c-1.1-2-2.8-3.6-4.9-4.6L379.5,406.8C376.4,405.3,372.7,405.3,369.5,406.9z"/>
<polygon class="st8" points="403.2,421.9 224.1,512.8 531.9,666.7 716.6,573 "/>
<ellipse class="st8" cx="644.5" cy="627.5" rx="18.9" ry="11.2"/>
<circle class="st8" cx="300" cy="450.9" r="1.8"/>
<circle class="st8" cx="294.8" cy="464.5" r="2.1"/>
<line class="st14" x1="302.5" y1="461" x2="323.4" y2="451.2"/>
<path class="st1" d="M429.1,540.8l59.3-34.2c8.6-5,19.6-2,24.6,6.6l0,0c5,8.6,2,19.6-6.6,24.6l-59.3,34.2c-8.6,5-19.6,2-24.6-6.6
	l0,0C417.6,556.7,420.5,545.7,429.1,540.8z"/>
<path class="st1" d="M482.1,567.8l59.3-34.2c8.6-5,19.6-2,24.6,6.6l0,0c5,8.6,2,19.6-6.6,24.6l-59.3,34.2c-8.6,5-19.6,2-24.6-6.6
	l0,0C470.6,583.7,473.5,572.7,482.1,567.8z"/>
<path class="st1" d="M381.1,509.8l59.3-34.2c8.6-5,19.6-2,24.6,6.6l0,0c5,8.6,2,19.6-6.6,24.6l-59.3,34.2c-8.6,5-19.6,2-24.6-6.6
	l0,0C369.6,525.7,372.5,514.7,381.1,509.8z"/>
</svg>
