<?xml version="1.0" encoding="utf-8"?>
<!-- Generator: Adobe Illustrator 25.0.0, SVG Export Plug-In . SVG Version: 6.00 Build 0)  -->
<svg version="1.1" id="e6c7a302-1d79-4c46-b758-a00a31f9e26b"
	 xmlns="http://www.w3.org/2000/svg" xmlns:xlink="http://www.w3.org/1999/xlink" x="0px" y="0px" viewBox="0 0 867.2 752.7"
	 style="enable-background:new 0 0 867.2 752.7;" xml:space="preserve">
<style type="text/css">
	.st0{fill:url(#SVGID_1_);}
	.st1{fill:#FFFFFF;}
	.st2{opacity:0.6;}
	.st3{fill:#6DC0E4;}
	.st4{fill:url(#SVGID_2_);}
	.st5{fill:url(#SVGID_3_);}
	.st6{fill:#F55F44;}
	.st7{fill:url(#SVGID_4_);}
	.st8{fill:url(#SVGID_5_);}
	.st9{fill:#47E6B1;}
	.st10{fill:url(#SVGID_6_);}
	.st11{fill:url(#SVGID_7_);}
	.st12{fill:url(#SVGID_8_);}
	.st13{fill:url(#SVGID_9_);}
	.st14{fill:url(#SVGID_10_);}
	.st15{fill:url(#SVGID_11_);}
	.st16{opacity:0.25;fill:#535461;enable-background:new    ;}
	.st17{fill:none;stroke:url(#SVGID_12_);stroke-width:2;stroke-miterlimit:10;}
	.st18{fill:none;stroke:#535461;stroke-width:2;stroke-miterlimit:10;}
	.st19{fill:none;stroke:url(#SVGID_13_);stroke-width:2;stroke-miterlimit:10;}
	.st20{fill:none;stroke:url(#SVGID_14_);stroke-width:2;stroke-miterlimit:10;}
	.st21{opacity:0.7;}
	.st22{fill:url(#SVGID_15_);}
	.st23{fill:#5856BA;}
	.st24{fill:#535461;}
	.st25{opacity:0.1;fill:#FFFFFF;enable-background:new    ;}
	.st26{fill:#4D8AF0;}
	.st27{fill:#3AD29F;}
</style>
<linearGradient id="SVGID_1_" gradientUnits="userSpaceOnUse" x1="1158.5835" y1="-106.9395" x2="1158.5835" y2="-171.3569" gradientTransform="matrix(-0.9583 0.2857 0.2857 0.9583 1607.3252 301.6384)">
	<stop  offset="0" style="stop-color:#808080;stop-opacity:0.25"/>
	<stop  offset="0.54" style="stop-color:#808080;stop-opacity:0.12"/>
	<stop  offset="1" style="stop-color:#808080;stop-opacity:0.1"/>
</linearGradient>
<polygon class="st0" points="397.9,483.4 498.3,453.5 516.7,515.2 416.3,545.1 "/>
<rect x="406" y="468.9" transform="matrix(0.9583 -0.2857 0.2857 0.9583 -123.5193 151.2507)" class="st1" width="101.2" height="60.1"/>
<g class="st2">
	
		<rect x="406.2" y="485.6" transform="matrix(0.9583 -0.2857 0.2857 0.9583 -122.8924 138.3341)" class="st3" width="12.9" height="9.5"/>
	
		<rect x="421.8" y="501.4" transform="matrix(0.9583 -0.2857 0.2857 0.9583 -125.0821 148.5297)" class="st3" width="49.4" height="3.1"/>
	
		<rect x="437" y="506.9" transform="matrix(0.9583 -0.2857 0.2857 0.9583 -126.1546 151.1666)" class="st3" width="36" height="2.1"/>
</g>
<linearGradient id="SVGID_2_" gradientUnits="userSpaceOnUse" x1="1235.6711" y1="-82.7574" x2="1235.6711" y2="-147.1958" gradientTransform="matrix(-0.9816 -0.1912 -0.1912 0.9816 1890.9513 697.9714)">
	<stop  offset="0" style="stop-color:#808080;stop-opacity:0.25"/>
	<stop  offset="0.54" style="stop-color:#808080;stop-opacity:0.12"/>
	<stop  offset="1" style="stop-color:#808080;stop-opacity:0.1"/>
</linearGradient>
<polygon class="st4" points="642.4,370.4 654.7,307.2 757.6,327.3 745.3,390.5 "/>
<rect x="667.9" y="298.5" transform="matrix(0.1903 -0.9817 0.9817 0.1903 222.4523 967.8054)" class="st1" width="60" height="101"/>
<g class="st2">
	
		<rect x="659.9" y="313.8" transform="matrix(0.1912 -0.9816 0.9816 0.1912 223.1789 911.3859)" class="st3" width="9.5" height="12.9"/>
	
		<rect x="687.2" y="322.5" transform="matrix(0.1912 -0.9816 0.9816 0.1912 216.2715 956.8362)" class="st3" width="3.1" height="49.4"/>
	
		<rect x="692.8" y="337.5" transform="matrix(0.1912 -0.9816 0.9816 0.1912 212.2268 968.6302)" class="st3" width="2.1" height="36"/>
</g>
<linearGradient id="SVGID_3_" gradientUnits="userSpaceOnUse" x1="1135.6201" y1="-416.7768" x2="1135.6201" y2="-481.1632" gradientTransform="matrix(-0.9583 0.2857 0.2857 0.9583 1607.3262 301.6203)">
	<stop  offset="0" style="stop-color:#808080;stop-opacity:0.25"/>
	<stop  offset="0.54" style="stop-color:#808080;stop-opacity:0.12"/>
	<stop  offset="1" style="stop-color:#808080;stop-opacity:0.1"/>
</linearGradient>
<polygon class="st5" points="331.4,180 431.8,150 450.2,211.7 349.8,241.6 "/>
<rect x="339.6" y="165.4" transform="matrix(0.9583 -0.2857 0.2857 0.9583 -39.5737 119.626)" class="st1" width="101.2" height="60.1"/>
<g class="st2">
	
		<rect x="339.7" y="182.1" transform="matrix(0.9583 -0.2857 0.2857 0.9583 -38.9549 106.6804)" class="st6" width="12.9" height="9.5"/>
	
		<rect x="355.3" y="197.9" transform="matrix(0.9583 -0.2857 0.2857 0.9583 -41.1453 116.8764)" class="st6" width="49.4" height="3.1"/>
	
		<rect x="370.5" y="203.5" transform="matrix(0.9583 -0.2857 0.2857 0.9583 -42.2433 119.525)" class="st6" width="36" height="2.1"/>
</g>
<linearGradient id="SVGID_4_" gradientUnits="userSpaceOnUse" x1="1358.9596" y1="-367.9869" x2="1358.9596" y2="-432.4121" gradientTransform="matrix(-0.9816 -0.1912 -0.1912 0.9816 1890.9556 697.9716)">
	<stop  offset="0" style="stop-color:#808080;stop-opacity:0.25"/>
	<stop  offset="0.54" style="stop-color:#808080;stop-opacity:0.12"/>
	<stop  offset="1" style="stop-color:#808080;stop-opacity:0.1"/>
</linearGradient>
<polygon class="st7" points="575.9,67 588.2,3.8 691.1,23.8 678.8,87 "/>
<rect x="603.2" y="-5.9" transform="matrix(0.1912 -0.9816 0.9816 0.1912 468.239 657.705)" class="st1" width="60.1" height="101.2"/>
<g class="st2">
	
		<rect x="593.3" y="10.3" transform="matrix(0.1912 -0.9816 0.9816 0.1912 467.2385 600.6288)" class="st3" width="9.5" height="12.9"/>
	
		<rect x="620.6" y="19" transform="matrix(0.1912 -0.9816 0.9816 0.1912 460.3312 646.0792)" class="st3" width="3.1" height="49.4"/>
	<rect x="626.3" y="34" transform="matrix(0.1912 -0.9816 0.9816 0.1912 456.4101 657.8177)" class="st3" width="2.1" height="36"/>
</g>
<linearGradient id="SVGID_5_" gradientUnits="userSpaceOnUse" x1="1499.1102" y1="785.782" x2="1499.1102" y2="721.402" gradientTransform="matrix(-0.3979 -0.9174 -0.9174 0.3979 1931.3689 1264.8175)">
	<stop  offset="0" style="stop-color:#808080;stop-opacity:0.25"/>
	<stop  offset="0.54" style="stop-color:#808080;stop-opacity:0.12"/>
	<stop  offset="1" style="stop-color:#808080;stop-opacity:0.1"/>
</linearGradient>
<polygon class="st8" points="593.1,154.2 652.2,128.5 693.9,224.6 634.8,250.3 "/>
<rect x="613.8" y="138.1" transform="matrix(0.9174 -0.3979 0.3979 0.9174 -21.929 271.7652)" class="st1" width="60.1" height="101.2"/>
<g class="st2">
	
		<rect x="642.2" y="137.6" transform="matrix(0.9174 -0.3979 0.3979 0.9174 -3.9073 269.3256)" class="st9" width="9.5" height="12.9"/>
	
		<rect x="636.9" y="154.4" transform="matrix(0.9174 -0.3979 0.3979 0.9174 -18.5618 268.8264)" class="st9" width="3.1" height="49.4"/>
	
		<rect x="633.5" y="170.1" transform="matrix(0.9174 -0.3979 0.3979 0.9174 -22.4583 268.0102)" class="st9" width="2.1" height="36"/>
</g>
<linearGradient id="SVGID_6_" gradientUnits="userSpaceOnUse" x1="1471.1068" y1="-278.4689" x2="1471.1068" y2="-342.8864" gradientTransform="matrix(-0.9583 0.2857 0.2857 0.9583 1607.3223 301.6272)">
	<stop  offset="0" style="stop-color:#808080;stop-opacity:0.25"/>
	<stop  offset="0.54" style="stop-color:#808080;stop-opacity:0.12"/>
	<stop  offset="1" style="stop-color:#808080;stop-opacity:0.1"/>
</linearGradient>
<polygon class="st10" points="49.4,408.3 149.8,378.4 168.2,440.1 67.8,470 "/>
<rect x="57.5" y="393.8" transform="matrix(0.9583 -0.2857 0.2857 0.9583 -116.5909 48.5535)" class="st1" width="101.2" height="60.1"/>
<g class="st2">
	
		<rect x="57.7" y="410.6" transform="matrix(0.9583 -0.2857 0.2857 0.9583 -115.9908 35.6442)" class="st3" width="12.9" height="9.5"/>
	
		<rect x="73.3" y="426.4" transform="matrix(0.9583 -0.2857 0.2857 0.9583 -118.1812 45.8403)" class="st3" width="49.4" height="3.1"/>
	
		<rect x="88.5" y="431.9" transform="matrix(0.9583 -0.2857 0.2857 0.9583 -119.2537 48.4771)" class="st3" width="36" height="2.1"/>
</g>
<linearGradient id="SVGID_7_" gradientUnits="userSpaceOnUse" x1="1592.0845" y1="-89.887" x2="1592.0845" y2="-154.3122" gradientTransform="matrix(-0.9816 -0.1912 -0.1912 0.9816 1890.9552 697.9791)">
	<stop  offset="0" style="stop-color:#808080;stop-opacity:0.25"/>
	<stop  offset="0.54" style="stop-color:#808080;stop-opacity:0.12"/>
	<stop  offset="1" style="stop-color:#808080;stop-opacity:0.1"/>
</linearGradient>
<polygon class="st11" points="293.9,295.4 306.2,232.2 409.1,252.2 396.7,315.4 "/>
<rect x="320" y="223" transform="matrix(0.1903 -0.9817 0.9817 0.1903 14.8425 565.0747)" class="st1" width="60" height="101"/>
<g class="st2">
	
		<rect x="311.3" y="238.8" transform="matrix(0.1912 -0.9816 0.9816 0.1912 14.8388 508.5902)" class="st6" width="9.5" height="12.9"/>
	
		<rect x="338.6" y="247.4" transform="matrix(0.1912 -0.9816 0.9816 0.1912 8.0372 553.995)" class="st6" width="3.1" height="49.4"/>
	
		<rect x="344.4" y="262.4" transform="matrix(0.1912 -0.9816 0.9816 0.1912 4.0832 565.9567)" class="st6" width="2.1" height="36.1"/>
</g>
<linearGradient id="SVGID_8_" gradientUnits="userSpaceOnUse" x1="1401.7566" y1="1135.4631" x2="1401.7566" y2="1071.0831" gradientTransform="matrix(-0.3979 -0.9174 -0.9174 0.3979 1931.3688 1264.8101)">
	<stop  offset="0" style="stop-color:#808080;stop-opacity:0.25"/>
	<stop  offset="0.54" style="stop-color:#808080;stop-opacity:0.12"/>
	<stop  offset="1" style="stop-color:#808080;stop-opacity:0.1"/>
</linearGradient>
<polygon class="st12" points="311.1,382.6 370.2,356.9 411.9,453.1 352.8,478.7 "/>
<rect x="331.8" y="366.5" transform="matrix(0.9174 -0.3979 0.3979 0.9174 -136.0907 178.408)" class="st1" width="60.1" height="101.2"/>
<g class="st2">
	
		<rect x="360.2" y="366" transform="matrix(0.9174 -0.3979 0.3979 0.9174 -118.0677 175.9678)" class="st9" width="9.5" height="12.9"/>
	
		<rect x="354.9" y="382.8" transform="matrix(0.9174 -0.3979 0.3979 0.9174 -132.7231 175.4708)" class="st9" width="3.1" height="49.4"/>
	
		<rect x="351.4" y="398.5" transform="matrix(0.9174 -0.3979 0.3979 0.9174 -136.6192 174.6551)" class="st9" width="2.1" height="36"/>
</g>
<linearGradient id="SVGID_9_" gradientUnits="userSpaceOnUse" x1="1408.0231" y1="-448.7479" x2="1408.0231" y2="-513.1653" gradientTransform="matrix(-0.9583 0.2857 0.2857 0.9583 1607.3177 301.6285)">
	<stop  offset="0" style="stop-color:#808080;stop-opacity:0.25"/>
	<stop  offset="0.54" style="stop-color:#808080;stop-opacity:0.12"/>
	<stop  offset="1" style="stop-color:#808080;stop-opacity:0.1"/>
</linearGradient>
<polygon class="st13" points="61.2,227.1 161.6,197.2 180,258.9 79.6,288.8 "/>
<rect x="71" y="211.8" transform="matrix(0.9573 -0.2892 0.2892 0.9573 -64.7713 45.5538)" class="st1" width="101.5" height="60.3"/>
<g class="st2">
	
		<rect x="69.5" y="229.3" transform="matrix(0.9583 -0.2857 0.2857 0.9583 -63.7023 31.4516)" class="st3" width="12.9" height="9.5"/>
	
		<rect x="85.1" y="245.2" transform="matrix(0.9583 -0.2857 0.2857 0.9583 -65.9182 41.6593)" class="st3" width="49.4" height="3.1"/>
	
		<rect x="100.3" y="250.7" transform="matrix(0.9583 -0.2857 0.2857 0.9583 -66.9907 44.2962)" class="st3" width="36" height="2.1"/>
</g>
<linearGradient id="SVGID_10_" gradientUnits="userSpaceOnUse" x1="1616.1606" y1="-271.402" x2="1616.1606" y2="-335.8024" gradientTransform="matrix(-0.98 -0.19 -0.19 0.98 1888.5861 697.8015)">
	<stop  offset="0" style="stop-color:#808080;stop-opacity:0.25"/>
	<stop  offset="0.54" style="stop-color:#808080;stop-opacity:0.12"/>
	<stop  offset="1" style="stop-color:#808080;stop-opacity:0.1"/>
</linearGradient>
<polygon class="st14" points="305,114.8 317.2,51.7 419.9,71.6 407.6,134.7 "/>
<rect x="332.8" y="41.3" transform="matrix(0.1912 -0.9816 0.9816 0.1912 203.3174 430.5177)" class="st1" width="60.1" height="101.2"/>
<g class="st2">
	
		<rect x="323.1" y="57.6" transform="matrix(0.1912 -0.9816 0.9816 0.1912 202.2669 373.6151)" class="st3" width="9.5" height="12.9"/>
	
		<rect x="350.4" y="66.2" transform="matrix(0.1912 -0.9816 0.9816 0.1912 195.4865 419.0108)" class="st3" width="3.1" height="49.4"/>
	
		<rect x="356.1" y="81.2" transform="matrix(0.1912 -0.9816 0.9816 0.1912 191.4749 430.845)" class="st6" width="2.1" height="36.1"/>
</g>
<linearGradient id="SVGID_11_" gradientUnits="userSpaceOnUse" x1="1563.3375" y1="1052.5168" x2="1563.3375" y2="988.1368" gradientTransform="matrix(-0.3979 -0.9174 -0.9174 0.3979 1931.3707 1264.8138)">
	<stop  offset="0" style="stop-color:#808080;stop-opacity:0.25"/>
	<stop  offset="0.54" style="stop-color:#808080;stop-opacity:0.12"/>
	<stop  offset="1" style="stop-color:#808080;stop-opacity:0.1"/>
</linearGradient>
<polygon class="st15" points="322.9,201.3 382,175.7 423.7,271.8 364.6,297.5 "/>
<rect x="343.5" y="185.3" transform="matrix(0.9174 -0.3979 0.3979 0.9174 -63.0359 168.1126)" class="st1" width="60.1" height="101.2"/>
<g class="st2">
	
		<rect x="372" y="184.8" transform="matrix(0.9174 -0.3979 0.3979 0.9174 -44.9915 165.7075)" class="st9" width="9.5" height="12.9"/>
	
		<rect x="366.7" y="201.6" transform="matrix(0.9174 -0.3979 0.3979 0.9174 -59.646 165.2083)" class="st9" width="3.1" height="49.4"/>
	
		<rect x="363.3" y="217.3" transform="matrix(0.9174 -0.3979 0.3979 0.9174 -63.5418 164.3959)" class="st9" width="2.1" height="36"/>
</g>
<circle class="st16" cx="63.9" cy="61.3" r="5.5"/>
<circle class="st16" cx="635" cy="540.4" r="5.5"/>
<circle class="st16" cx="151.8" cy="513.2" r="5.5"/>
<circle class="st16" cx="685.8" cy="437" r="5.5"/>
<circle class="st16" cx="737.3" cy="186.1" r="5.5"/>
<polygon class="st16" points="333.4,4.9 328.6,4.9 328.6,0 326.6,0 326.6,4.9 321.7,4.9 321.7,6.8 326.6,6.8 326.6,11.7 328.6,11.7 
	328.6,6.8 333.4,6.8 "/>
<polygon class="st16" points="146.3,79.4 141.4,79.4 141.4,74.5 139.4,74.5 139.4,79.4 134.6,79.4 134.6,81.4 139.4,81.4 
	139.4,86.2 141.4,86.2 141.4,81.4 146.3,81.4 "/>
<polygon class="st16" points="70.2,357.1 65.3,357.1 65.3,352.3 63.3,352.3 63.3,357.1 58.5,357.1 58.5,359.1 63.3,359.1 63.3,364 
	65.3,364 65.3,359.1 70.2,359.1 "/>
<polygon class="st16" points="59.2,159.1 54.4,159.1 54.4,154.2 52.4,154.2 52.4,159.1 47.5,159.1 47.5,161.1 52.4,161.1 
	52.4,165.9 54.4,165.9 54.4,161.1 59.2,161.1 "/>
<polygon class="st16" points="11.7,295.2 6.8,295.2 6.8,290.3 4.9,290.3 4.9,295.2 0,295.2 0,297.1 4.9,297.1 4.9,302 6.8,302 
	6.8,297.1 11.7,297.1 "/>
<polygon class="st16" points="867.2,225 862.3,225 862.3,220.1 860.3,220.1 860.3,225 855.5,225 855.5,227 860.3,227 860.3,231.8 
	862.3,231.8 862.3,227 867.2,227 "/>
<polygon class="st16" points="697.8,288.3 692.9,288.3 692.9,283.4 690.9,283.4 690.9,288.3 686,288.3 686,290.2 690.9,290.2 
	690.9,295.1 692.9,295.1 692.9,290.2 697.8,290.2 "/>
<polygon class="st16" points="553.1,117.6 548.2,117.6 548.2,112.8 546.2,112.8 546.2,117.6 541.4,117.6 541.4,119.6 546.2,119.6 
	546.2,124.5 548.2,124.5 548.2,119.6 553.1,119.6 "/>
<linearGradient id="SVGID_12_" gradientUnits="userSpaceOnUse" x1="438.2231" y1="15.3059" x2="541.3051" y2="15.3059" gradientTransform="matrix(1 0 0 1 -166.4 478.36)">
	<stop  offset="0" style="stop-color:#808080;stop-opacity:0.25"/>
	<stop  offset="0.54" style="stop-color:#808080;stop-opacity:0.12"/>
	<stop  offset="1" style="stop-color:#808080;stop-opacity:0.1"/>
</linearGradient>
<path class="st17" d="M273.9,395.7c-3.5,11.4,1.8,24.8,12,30.8c4.3,2.5,9.2,3.8,13.4,6.5c9,5.9,12.6,17.2,15.6,27.6
	c3.4,12,6.8,24.6,3.7,36.6c-2,7.7-6.5,14.4-9,21.9c-2.1,6.3-2.9,12.9-2.2,19.5c0.4,3.5,1.2,7.1,3.6,9.7c3.5,3.7,9,4.3,14,5.2
	c21.5,4.1,39.7,18.2,49,38"/>
<path class="st18" d="M275,395.7c-3.5,11.4,1.8,24.8,12,30.8c4.3,2.5,9.2,3.8,13.4,6.5c9,5.9,12.6,17.2,15.6,27.6
	c3.4,12,6.8,24.6,3.7,36.6c-2,7.7-6.5,14.4-9,21.9c-2.1,6.3-2.9,12.9-2.2,19.5c0.4,3.5,1.2,7.1,3.6,9.7c3.5,3.7,9,4.3,14,5.2
	c21.5,4.1,39.7,18.2,49,38"/>
<linearGradient id="SVGID_13_" gradientUnits="userSpaceOnUse" x1="554.452" y1="-26.7969" x2="586.4436" y2="-26.7969" gradientTransform="matrix(1 0 0 1 -166.4 478.36)">
	<stop  offset="0" style="stop-color:#808080;stop-opacity:0.25"/>
	<stop  offset="0.54" style="stop-color:#808080;stop-opacity:0.12"/>
	<stop  offset="1" style="stop-color:#808080;stop-opacity:0.1"/>
</linearGradient>
<path class="st19" d="M407.4,310.9c-8.6,12-17.6,25-18.3,39.8c-1.1,22.7,17,41.3,25.2,62.6c7.1,18.9,6.2,39.9-2.5,58.2
	c-4,8.2-9.6,16.3-8.9,25.4c0.4,5.5,3.2,10.6,5.4,15.7c11.1,25.9,9.2,55.5-5.1,79.7"/>
<path class="st18" d="M408.5,310.9c-8.6,12-17.6,25-18.3,39.8c-1.1,22.7,17,41.3,25.2,62.6c7.1,18.9,6.2,39.9-2.5,58.2
	c-4,8.2-9.6,16.3-8.9,25.4c0.4,5.5,3.2,10.6,5.4,15.7c11.1,25.9,9.2,55.5-5.1,79.7"/>
<linearGradient id="SVGID_14_" gradientUnits="userSpaceOnUse" x1="669.68" y1="30.6938" x2="700.571" y2="30.6938" gradientTransform="matrix(1 0 0 1 -166.4 478.36)">
	<stop  offset="0" style="stop-color:#808080;stop-opacity:0.25"/>
	<stop  offset="0.54" style="stop-color:#808080;stop-opacity:0.12"/>
	<stop  offset="1" style="stop-color:#808080;stop-opacity:0.1"/>
</linearGradient>
<path class="st20" d="M528.6,419.1l4.2,34c0.5,4.5,1,9.5-1.4,13.3c-2.3,3.7-6.6,5.4-10,8.1c-11,8.8-10,25.8-6.2,39.5
	c3.8,13.6,9.3,28.3,4,41.4c-2.2,5.4-6,10-8.9,15c-4.9,8.7-6.8,18.7-5.5,28.6"/>
<path class="st18" d="M529.6,419.1l4.2,34c0.5,4.5,1,9.5-1.4,13.3c-2.3,3.7-6.6,5.4-10,8.1c-11,8.8-10,25.8-6.2,39.5
	s9.3,28.3,4,41.4c-2.2,5.4-6,10-8.9,15c-4.9,8.7-6.8,18.7-5.5,28.6"/>
<g class="st21">
	
		<linearGradient id="SVGID_15_" gradientUnits="userSpaceOnUse" x1="571.05" y1="-45.46" x2="571.05" y2="-413.03" gradientTransform="matrix(1 0 0 1 -166.4 478.36)">
		<stop  offset="0" style="stop-color:#808080;stop-opacity:0.25"/>
		<stop  offset="0.54" style="stop-color:#808080;stop-opacity:0.12"/>
		<stop  offset="1" style="stop-color:#808080;stop-opacity:0.1"/>
	</linearGradient>
	<path class="st22" d="M636.8,279.2c0-55.7-45.3-100.9-101-100.8c-10.6,0-21,1.7-31.1,4.9c0.8-5.7,1.3-11.4,1.3-17.1
		c0.3-55.7-44.5-101.1-100.2-101.5c-53.4-0.3-97.7,41-101.2,94.2c-53-17.2-109.9,11.8-127.2,64.8c-3.3,10.1-4.9,20.6-4.9,31.1
		c0,50.6,37.3,122.6,85.9,135.3l7.5,4.3l-4.1,14.1h24.3l-5.3-14.1l7.5-4.3c37.5-9.9,68.3-55,80.4-98.4c6.6,4.4,13.9,7.7,21.5,9.8
		l7.5,4.3l-4.1,14.1H418l-5.3-14.1l7.5-4.3c5.6-1.5,11-3.7,16-6.5c6.5,48.6,41,108.1,84.7,119.5l7.6,4.3l-4.1,14.1h24.3l-5.3-14.1
		l7.5-4.3C599.6,401.8,636.8,329.8,636.8,279.2z"/>
</g>
<polygon class="st23" points="289.9,403.4 266.4,403.4 270.5,389.3 284.6,389.3 "/>
<path class="st23" d="M375.2,254.7c0,53.9-43.7,132.8-97.6,132.8s-97.6-79-97.6-132.8c0-53.9,43.7-97.6,97.6-97.5
	C331.5,157.2,375.1,200.8,375.2,254.7L375.2,254.7z"/>
<polygon class="st24" points="284.6,389.9 270.5,389.9 262.3,385.2 292.9,385.2 "/>
<path class="st25" d="M242.3,178.9c0,0-41.1,22.3-47,67"/>
<polygon class="st26" points="417.5,317.6 394,317.6 398.1,303.5 412.2,303.5 "/>
<path class="st26" d="M502.8,168.9c0,53.9-43.7,132.9-97.6,132.9s-97.6-78.9-97.6-132.9c0-53.9,43.7-97.6,97.6-97.6
	S502.8,115,502.8,168.9L502.8,168.9z"/>
<polygon class="st24" points="412.2,304.1 398.1,304.1 389.9,299.4 420.5,299.4 "/>
<path class="st25" d="M369.9,93.1c0,0-41.1,22.3-47,67"/>
<polygon class="st27" points="544.1,427 520.6,427 524.7,412.9 538.8,412.9 "/>
<path class="st27" d="M629.3,278.3c0,53.9-43.7,132.8-97.6,132.8s-97.6-79-97.6-132.8c0-53.9,43.7-97.6,97.6-97.6
	S629.3,224.4,629.3,278.3z"/>
<polygon class="st24" points="538.8,413.5 524.7,413.5 516.5,408.8 547,408.8 "/>
<path class="st25" d="M496.5,202.4c0,0-41.2,22.3-47,67"/>
</svg>
