<?xml version="1.0" encoding="utf-8"?>
<!-- Generator: Adobe Illustrator 25.0.0, SVG Export Plug-In . SVG Version: 6.00 Build 0)  -->
<svg version="1.1" id="bab7d7d3-5265-4add-b9d0-a4ec8bbdc3a5"
	 xmlns="http://www.w3.org/2000/svg" xmlns:xlink="http://www.w3.org/1999/xlink" x="0px" y="0px" viewBox="0 0 965.8 729.2"
	 style="enable-background:new 0 0 965.8 729.2;" xml:space="preserve">
<style type="text/css">
	.st0{fill:#3F3D56;}
	.st1{fill:#6DC0E4;}
	.st2{fill:#E6E6E6;}
	.st3{fill:#FFB8B8;}
	.st4{fill:#2F2E41;}
	.st5{fill:#575A89;}
	.st6{fill:#FFB9B9;}
	.st7{fill:none;stroke:#3F3D56;stroke-miterlimit:10;}
	.st8{opacity:0.1;enable-background:new    ;}
</style>
<path class="st0" d="M445.4,155.6H207.1c-2.4,0-4.4-2-4.4-4.4V92.1c0-2.4,2-4.4,4.4-4.4h238.3c2.4,0,4.4,2,4.4,4.4v59.1
	C449.8,153.6,447.8,155.6,445.4,155.6z M207.1,89.4c-1.5,0-2.6,1.2-2.6,2.6v59.1c0,1.5,1.2,2.6,2.6,2.6h238.3c1.5,0,2.6-1.2,2.6-2.6
	V92.1c0-1.5-1.2-2.6-2.6-2.6L207.1,89.4z"/>
<ellipse transform="matrix(0.1602 -0.9871 0.9871 0.1602 87.254 341.223)" class="st1" cx="244.2" cy="119.3" rx="18" ry="18"/>
<path class="st2" d="M285.7,107.4c-1.7,0-3,1.3-3,3c0,1.7,1.3,3,3,3h141.2c1.7,0,3-1.3,3-3c0-1.7-1.3-3-3-3H285.7z"/>
<path class="st2" d="M285.7,125.3c-1.7,0-3,1.3-3,3c0,1.7,1.3,3,3,3h60.8c1.7,0,3-1.3,3-3c0-1.7-1.3-3-3-3c0,0,0,0,0,0H285.7z"/>
<path class="st0" d="M342,366.2H236.1c-2.4,0-4.4-2-4.4-4.4V251.5c0-2.4,2-4.4,4.4-4.4H342c2.4,0,4.4,2,4.4,4.4v110.3
	C346.4,364.3,344.4,366.2,342,366.2z M236.1,248.9c-1.5,0-2.6,1.2-2.6,2.6v110.3c0,1.5,1.2,2.6,2.6,2.6H342c1.5,0,2.6-1.2,2.6-2.6
	V251.5c0-1.5-1.2-2.6-2.6-2.6L236.1,248.9z"/>
<path class="st2" d="M258.6,269.9c-1.7,0-3,1.3-3,3c0,1.7,1.3,3,3,3h60.8c1.7,0,3-1.3,3-3c0-1.7-1.3-3-3-3H258.6z"/>
<path class="st2" d="M258.6,287.5c-1.7,0-3,1.3-3,3c0,1.7,1.3,3,3,3c0,0,0,0,0,0h60.8c1.7,0,3-1.3,3-3c0-1.7-1.3-3-3-3H258.6z"/>
<path class="st1" d="M289,343.5c-10.4,0-18.9-8.4-18.9-18.9s8.4-18.9,18.9-18.9c10.4,0,18.9,8.4,18.9,18.9v0
	C307.9,335,299.4,343.5,289,343.5z"/>
<path class="st0" d="M515.4,0h105.9c2.4,0,4.4,2,4.4,4.4v110.3c0,2.4-2,4.4-4.4,4.4H515.4c-2.4,0-4.4-2-4.4-4.4V4.4
	C511,2,513,0,515.4,0z M621.3,117.3c1.5,0,2.6-1.2,2.6-2.6V4.4c0-1.5-1.2-2.6-2.6-2.6H515.4c-1.5,0-2.6,1.2-2.6,2.6v110.3
	c0,1.5,1.2,2.6,2.6,2.6H621.3z"/>
<path class="st2" d="M598.8,96.4c1.7,0,3-1.3,3-3s-1.3-3-3-3c0,0,0,0,0,0H538c-1.7,0-3,1.3-3,3s1.3,3,3,3c0,0,0,0,0,0H598.8z"/>
<path class="st2" d="M598.8,78.7c1.7,0,3-1.3,3-3s-1.3-3-3-3c0,0,0,0,0,0H538c-1.7,0-3,1.3-3,3s1.3,3,3,3c0,0,0,0,0,0H598.8z"/>
<path class="st1" d="M568.4,22.7c10.4,0,18.9,8.4,18.9,18.9s-8.4,18.9-18.9,18.9s-18.9-8.4-18.9-18.9c0,0,0,0,0,0
	C549.5,31.2,558,22.8,568.4,22.7z"/>
<path class="st0" d="M204.1,228.2c18.7-14.5,40.6-24.4,63.9-28.9c23.5-4.5,47.7-3.2,70.5,3.6c11.5,3.4,22.5,8.2,32.9,14.3
	c10.6,6.2,20.1,13.8,29.3,21.8c9.3,8.1,18.3,16.7,28,24.3c27.7,22.2,62.1,34.3,97.6,34.3c2.9,0,5.9-0.1,8.8-0.2
	c1.6-0.1,1.6-2.6,0-2.5c-36.2,2-71.9-8.8-100.9-30.5c-10.1-7.5-19.2-16.1-28.6-24.5c-9.1-8.1-18.4-15.9-28.7-22.4
	c-51.6-32.5-117.6-31-167.7,3.8c-2.3,1.6-4.6,3.3-6.8,5.1C201.1,227.4,202.8,229.1,204.1,228.2L204.1,228.2z"/>
<circle class="st0" cx="202.8" cy="227.3" r="12.9"/>
<circle class="st0" cx="682.1" cy="398.3" r="12.9"/>
<path class="st0" d="M749.7,324.9H539.4c-2.4,0-4.4-2-4.4-4.4V211.1c0-2.4,2-4.4,4.4-4.4h210.3c2.4,0,4.4,2,4.4,4.4v109.4
	C754.1,323,752.1,324.9,749.7,324.9z M539.4,208.5c-1.5,0-2.6,1.2-2.6,2.6v109.4c0,1.5,1.2,2.6,2.6,2.6h210.3c1.5,0,2.6-1.2,2.6-2.6
	V211.1c0-1.5-1.2-2.6-2.6-2.6H539.4z"/>
<circle class="st1" cx="574.7" cy="245.5" r="18"/>
<path class="st2" d="M616.2,233.5c-1.7,0-3,1.3-3,3c0,1.7,1.3,3,3,3c0,0,0,0,0,0h113.2c1.7,0,3-1.3,3-3c0-1.7-1.3-3-3-3l0,0H616.2z"
	/>
<path class="st2" d="M616.2,251.5c-1.7,0-3,1.3-3,3c0,1.7,1.3,3,3,3c0,0,0,0,0,0h60.8c1.7,0,3-1.3,3-3c0-1.7-1.3-3-3-3H616.2z"/>
<path class="st2" d="M560.9,280.2c-2.3,0-4.1,1.3-4.1,3s1.9,3,4.1,3h166.8c2.3,0,4.1-1.3,4.1-3s-1.9-3-4.1-3H560.9z"/>
<path class="st2" d="M560.9,298.2c-2.3,0-4.1,1.3-4.1,3s1.9,3,4.1,3h166.8c2.3,0,4.1-1.3,4.1-3s-1.9-3-4.1-3H560.9z"/>
<path class="st0" d="M522.5,410.3c11.9-5.1,25.1-0.7,36.3,4.1c5.8,2.4,11.5,5,17.4,7c5,1.6,10.1,2.8,15.4,3.6
	c10.4,1.6,21.1,1.7,31.5,0.2c10.5-1.5,20.8-4.4,30.4-8.9c9.6-4.4,18.5-10.2,26.3-17.2c1-0.9,2-1.8,2.9-2.8c1.1-1.1-0.6-2.9-1.8-1.8
	c-7.6,7.4-16.2,13.5-25.7,18.1c-9.4,4.6-19.5,7.9-29.9,9.6c-10.4,1.8-21,1.9-31.5,0.5c-5.2-0.7-10.4-1.8-15.4-3.3
	c-5.8-1.9-11.5-4.1-17-6.6c-11.3-4.8-23.8-9.6-36.2-6.2c-1.4,0.4-2.8,0.9-4.2,1.5C519.8,408.8,521,411,522.5,410.3L522.5,410.3z"/>
<path class="st1" d="M517.9,440.8h-99.3l23.4-40.5c1.3-2.3,4.2-3.1,6.5-1.7c0.7,0.4,1.3,1,1.7,1.7l10,17.3l17-29.4
	c1.7-2.9,5.3-3.8,8.2-2.2c0.9,0.5,1.7,1.3,2.2,2.2L517.9,440.8z"/>
<path class="st0" d="M518,440.7H412.1c-2.4,0-4.4-2-4.4-4.4v-59.1c0-2.4,2-4.4,4.4-4.4H518c2.4,0,4.4,2,4.4,4.4v59.1
	C522.4,438.8,520.4,440.7,518,440.7z M412.1,374.6c-1.5,0-2.6,1.2-2.6,2.6v59.1c0,1.5,1.2,2.6,2.6,2.6H518c1.5,0,2.6-1.2,2.6-2.6
	v-59.1c0-1.5-1.2-2.6-2.6-2.6H412.1z"/>
<path class="st3" d="M725.7,388.7l-18.9,9.6c-6.7,3.4-13.2,2.8-15.7-4.3l0,0c-2.3-6.5,1.2-13.6,7.7-15.9c0.6-0.2,1.2-0.4,1.8-0.5
	l17.9-3.3l76.8-25.5l46.5-33L859,343l-53.8,29L725.7,388.7z"/>
<polygon class="st3" points="813.8,706.9 799.4,704.5 801,677.2 816.2,677.2 "/>
<polygon class="st3" points="954,680.2 940,684.6 929.1,659.5 942.7,652.6 "/>
<path class="st4" d="M946.2,656.3l-17.7,7.2l-84.2-110.7l-26.5,130l-17.7-3.2c-11.3-112.1-20.6-226.3-9.2-280.4l65.4-2.8l29.7,94.7
	l14.4,64.2L946.2,656.3z"/>
<path class="st4" d="M813,728.9L813,728.9c-2.6,0.6-5.4,0.3-7.9-0.8l-8.6-3.9c-7.2-0.4-12.1,1.1-16.1-4.2c-2.3-3-2.8-7.1-1.2-10.6
	l0,0c1.5-3.5,4.8-5.9,8.6-6.3l11.8-7.4l0.6,5.6c5.4,3.1,11.8,1.7,18.6-1.2l3.7,12.9c1.9,6.7-2,13.7-8.7,15.7
	C813.6,728.8,813.3,728.9,813,728.9z"/>
<path class="st4" d="M959.7,702.4L959.7,702.4c-2.3,1.4-5,2-7.7,1.8l-9.4-0.9c-6.9,2-11.1,4.9-16.6,1.3c-3.2-2.1-4.9-5.8-4.6-9.6
	l0,0c0.3-3.8,2.7-7.1,6.1-8.7l8.7-10.8l2.4,5.1c6.1,1.1,11.7-2.2,17.1-7.2l7.7,11c4,5.7,2.6,13.6-3.1,17.6
	C960.2,702.1,959.9,702.2,959.7,702.4z"/>
<circle class="st3" cx="832.3" cy="253.6" r="28.9"/>
<polygon class="st3" points="867.6,314.6 829.9,306.5 825,275.2 851.5,269.6 "/>
<path class="st5" d="M857.1,400.4h-67.4l15.2-38.1c-1.1-13.1,4.5-22.8,12.4-31.2l10.1-25.4c16.3-10.7,28.6-9.9,41.7,4
	C884.7,331.7,873.9,364.8,857.1,400.4z"/>
<path class="st3" d="M826.6,481.4l-1.9,21.1c-0.7,7.5-4.6,12.7-12,11l0,0c-6.7-1.5-10.9-8.2-9.4-14.9c0.1-0.6,0.3-1.2,0.6-1.8
	l6.7-17l19.3-78.6l-3.2-57h32.1l-4,61L826.6,481.4z"/>
<path class="st5" d="M861.1,345.8h-36.9l2.6-24.1c0.4-8.6,7.2-15.6,15.9-16l0,0c9.2-0.5,17.1,6.6,17.5,15.8c0,0.1,0,0.1,0,0.2
	L861.1,345.8z"/>
<circle class="st4" cx="868" cy="213" r="10.9"/>
<path class="st4" d="M856.8,210.4c0.4-5.7,5.1-10.2,10.9-10.1c-0.2,0-0.4-0.1-0.7-0.1c-6-0.4-11.1,4.2-11.5,10.1
	c-0.4,6,4.2,11.1,10.1,11.5c0.2,0,0.5,0,0.7,0C860.6,221.1,856.5,216.1,856.8,210.4z"/>
<path class="st4" d="M856.8,215c-9.7-8-37.5,2.2-39.2,7.6c-13.1,1.8-23,9.4-23,23v0c7.8,3.2,16.6,2.8,26.2,0
	c15.3,12.4,16.3,28.1,7,46l11.4,0.2l14.1-20.7l0.7,21l26.2-0.5v-30.1c0.1-10-2.2-19.9-6.7-28.8C869.4,224.8,863,220.2,856.8,215z"/>
<ellipse class="st3" cx="832.4" cy="260.8" rx="5.2" ry="7.3"/>
<path class="st6" d="M179.2,270.1c0,0,3.1-54.1,19.3-41.8s-7.1,46.8-7.1,46.8L179.2,270.1z"/>
<path class="st6" d="M118.8,430.5c0,0,36,40.5,15.9,43.2s-28.1-38.1-28.1-38.1L118.8,430.5z"/>
<path class="st5" d="M71.8,239L71.8,239c9.2,2.4,16.1,10.2,17.5,19.7l11.5,81.6l16.1,65.1c0,0,8,7.2,4.8,11.2s4,20.9,4,20.9
	l-20.1,6.4c0,0-2.4-16.9-6.4-17.7c-3.5-0.7-43.1-106.3-52.6-131.9c-1.3-3.5-2.1-5.5-2.1-5.5S46.1,235,71.8,239z"/>
<path class="st6" d="M75.5,664.5l12.3,21.9c9.6,20.4,1.1,24.1-22.4,14l-5.3-25.8L75.5,664.5z"/>
<path class="st4" d="M81.7,693.6c0,0,5.9-9.5,8-7.9s10.9,8.5,10.9,8.5l11.4,10.9c0,0,38.5,4.1,14,17.5S88,724.9,88,724.9
	s-34.2,1.8-33.7-7.8s11.6-24.7,11.6-24.7S79.8,701.8,81.7,693.6z"/>
<path class="st4" d="M20.7,417.3l11.6,140c0,0,0.4,83.7,12.7,99.9s12.7,24.3,12.7,24.3l25.4-13.1c0,0-13.1-21.8-10.4-25.2
	c1.7-2.1,2.8-4.6,3.5-7.2l-6.9-86.4l13.1-150.4L20.7,417.3z"/>
<path class="st7" d="M38.5,681.5"/>
<polygon class="st6" points="52.3,664.5 41.5,693 17.1,682.8 30,661.4 "/>
<path class="st4" d="M34.3,683.4c0,0,9.2-5.7,10.3-3.4s5.7,12.1,5.7,12.1l5.2,14.3c0,0,31.6,20.1,4.6,21.2s-33.9-14.3-33.9-14.3
	S-4.1,700.1,0.5,692s20.7-16.4,20.7-16.4S29.2,689.7,34.3,683.4z"/>
<path class="st4" d="M118.7,417.7l6.2,128.8c0,0-56.3,116.4-62.5,119.5c-3.7,1.9-6.5,5.3-7.7,9.3l-33.9-8.5l15.4-24.7l33.9-82.5
	c0,0,5.4-2.3,6.9-10s4.6-7.7-3.1-9.3s-7.7-9.3-7.7-9.3L40.8,413.9L118.7,417.7z"/>
<circle class="st6" cx="90.9" cy="184.8" r="30.8"/>
<path class="st6" d="M63.5,186.8c0,0-2.3,39.3-5.4,43.2s32.4,3.1,32.4,3.1s-2.3-33.2,0-36.2S63.5,186.8,63.5,186.8z"/>
<path class="st1" d="M121,426.2c0,0-87.1-7.7-103.3,0c0,0,6-22.1,4.4-24.4c-1.1-1.7,2-64.7,1-101c-0.6-20.5-5.3-40.5,8.5-55.7
	c4.7-5.2,9.9-9.5,15.4-11.6c0,0-1.5-14.6,6.2-15.4c0,0,29.3-3.1,40.1,6.2c3.4,2.9,5.6,11.9,5.9,19.6c-5.3,26.3-3.4,55.4,1.4,85.6
	c0.3,1.9,0.6,3.9,1,5.8C106.7,365.2,114.5,396.1,121,426.2z"/>
<path class="st4" d="M74.8,193.9c2.6-0.2,5.2,0.7,7.7,1.1c9.3,1.2,18.9-5.5,21-14.6c0.2-1.2,0.5-2.4,1.1-3.5
	c1.4-2.3,4.7-2.8,7.4-2.2s5.2,1.8,7.9,1.9c4.2,0.2,8.3-2.4,10.5-5.9c2.1-3.7,3-7.9,2.6-12.2l-2,2.1c-0.8-1.7-1.1-3.7-0.9-5.6
	c-2.2-0.6-4.5,0-6.1,1.6c-1.8,0.2-0.4-3.3-1.8-4.5c-0.6-0.4-1.4-0.5-2.2-0.4c-3.8,0-6.9-2.9-9.8-5.2c-5.2-4-11.2-6.8-17.6-8.1
	c-4.3-0.8-8.8-1-12.9,0.6c-3.3,1.5-6.2,3.6-8.7,6.2c-6.3,6.1-12,13.3-14.6,21.7c-2.1,6.9-2.2,14.2-0.2,21.2c1.1,3.6,4.3,15.9,9,16.2
	C71,204.6,67.4,194.4,74.8,193.9z"/>
<path class="st1" d="M87.6,242.8l11.1,1.2c0,0,10.8,21,10.1,25.4s-2.5,1.7,2.4,8.7s18.7,25.2,20.5,27.8s48.5-33,45.6-43.7
	c0,0,14.8,10.6,21.1,12c0,0-48.2,63.2-54.9,71.3s-12.1,6.4-21.4,1.6S66,294.6,66,294.6L87.6,242.8z"/>
<path class="st8" d="M101.5,335.2l-38.4-38.4l9.7-3.2l27.7,35.8C100.8,331.3,101.1,333.3,101.5,335.2z"/>
</svg>
